<svg id="_02" data-name="02" xmlns="http://www.w3.org/2000/svg" width="332" height="163" viewBox="0 0 332 163">
  <defs>
    <style>
      .cls-1 {
        fill: #c66626;
        stroke: #fff;
        stroke-width: 2px;
        fill-rule: evenodd;
      }
    </style>
  </defs>
  <path id="Фигура_110" data-name="Фигура 110" class="cls-1" d="M1407,620l-18,50-292-77V562l-8-2,16-43,14-8,300,77-10,8v19Z" transform="translate(-1088 -508)"/>
  <path id="Фигура_111" data-name="Фигура 111" class="cls-1" d="M1131,601l1-30,16-45,17-4" transform="translate(-1088 -508)"/>
  <path id="Фигура_112" data-name="Фигура 112" class="cls-1" d="M1165,611l1-31,17-44,17-6" transform="translate(-1088 -508)"/>
  <path id="Фигура_113" data-name="Фигура 113" class="cls-1" d="M1201,620l1-30,18-45,18-5" transform="translate(-1088 -508)"/>
  <path id="Фигура_114" data-name="Фигура 114" class="cls-1" d="M1237,630l1-30,18-47,16-3" transform="translate(-1088 -508)"/>
  <path id="Фигура_115" data-name="Фигура 115" class="cls-1" d="M1273,638V609l18.5-46,12.5-6" transform="translate(-1088 -508)"/>
  <path id="Фигура_116" data-name="Фигура 116" class="cls-1" d="M1311,648V621l19-48,16-6" transform="translate(-1088 -508)"/>
  <path id="Фигура_117" data-name="Фигура 117" class="cls-1" d="M1347,658V631l21-50,21-3" transform="translate(-1088 -508)"/>
</svg>
