<svg xmlns="http://www.w3.org/2000/svg" xmlns:xlink="http://www.w3.org/1999/xlink" viewBox="0 0 100 125"><defs><path id="a" d="M0 0h100v125H0z"/></defs><clipPath id="b"><use xlink:href="#a" overflow="visible"/></clipPath><path clip-path="url(#b)" fill="none" stroke="#F4EBDE" stroke-width="3" stroke-linecap="square" stroke-miterlimit="10" d="M84.7 75.7H15.3c-1.9 0-3.5-1.6-3.5-3.5s1.6-3.5 3.5-3.5h69.3c1.9 0 3.5 1.6 3.5 3.5a3.4 3.4 0 01-3.4 3.5M62.4 31.9v8.7c0 3.2.1 6.4.2 9.6-2.2.1-4.4.1-6.5.2V30.5c0-2.3-1.7-4.2-3.7-4.2h-4.7c-2 0-3.7 1.9-3.7 4.2v19.8h-5.8c.1-5.9.1-11.8.2-17.7-3 1.3-9.4 4.4-14.6 11.3-6.2 8.2-7 16.7-7.1 19.9H59v-.1h24.4c-.3-3.6-1.5-11.8-7.3-19.9a40.33 40.33 0 00-13.7-11.9z"/></svg>