<svg xmlns="http://www.w3.org/2000/svg" xmlns:xlink="http://www.w3.org/1999/xlink" viewBox="0 0 30 30"><defs><path id="a" d="M0 0h30v30H0z"/></defs><clipPath id="b"><use xlink:href="#a" overflow="visible"/></clipPath><path clip-path="url(#b)" fill="#F4EBDE" d="M15 14.6c-2.8 0-5 2.2-5 5s2.2 5 5 5 5-2.2 5-5-2.2-5-5-5m0 9c-2.2 0-4-1.8-4-4s1.8-4 4-4 4 1.8 4 4-1.8 4-4 4M15 14.1c.3 0 .5-.2.5-.5v-.5c0-.3-.2-.5-.5-.5s-.5.2-.5.5v.5c0 .2.2.5.5.5M19.2 14.6l-.3.4c-.2.2-.2.5 0 .7.2.2.5.2.7 0l.4-.4c.2-.2.2-.5 0-.7-.3-.2-.6-.2-.8 0M21.5 19.1H21c-.3 0-.5.2-.5.5s.2.5.5.5h.5c.3 0 .5-.2.5-.5s-.2-.5-.5-.5"/><path clip-path="url(#b)" fill="#F4EBDE" d="M19.6 23.4c-.2-.2-.5-.2-.7 0-.2.2-.2.5 0 .7l.4.4c.2.2.5.2.7 0 .2-.2.2-.5 0-.7l-.4-.4zM15 25.1c-.3 0-.5.2-.5.5v.5c0 .3.2.5.5.5s.5-.2.5-.5v-.5c0-.3-.2-.5-.5-.5M10.4 23.4l-.4.4c-.2.2-.2.5 0 .7.2.2.5.2.7 0l.4-.4c.2-.2.2-.5 0-.7-.2-.1-.5-.1-.7 0M9 19.1h-.5c-.3 0-.5.2-.5.5s.2.5.5.5H9c.3 0 .5-.2.5-.5s-.2-.5-.5-.5M10.4 15.7c.2.2.5.2.7 0 .2-.2.2-.5 0-.7l-.4-.4c-.2-.2-.5-.2-.7 0-.2.2-.2.5 0 .7l.4.4z"/><path clip-path="url(#b)" fill="#F4EBDE" d="M28.5 14.1c-.8 0-1.5.7-1.5 1.5v.5h-4.3c-.9-1.9-2.4-3.4-4.2-4.2V8.1c0-.3-.2-.5-.5-.5h-1v-3h6c.8 0 1.5-.7 1.5-1.5s-.7-1.5-1.5-1.5H7c-.8 0-1.5.7-1.5 1.5S6.2 4.6 7 4.6h6v3h-1c-.3 0-.5.2-.5.5v3.8c-1.9.9-3.4 2.4-4.2 4.2H3v-.5c0-.8-.7-1.5-1.5-1.5S0 14.8 0 15.6v8c0 .8.7 1.5 1.5 1.5S3 24.4 3 23.6v-.5h4.3a8.46 8.46 0 0015.5 0H27v.5c0 .8.7 1.5 1.5 1.5s1.5-.7 1.5-1.5v-8c0-.9-.7-1.5-1.5-1.5m-22-11c0-.3.2-.5.5-.5h16c.3 0 .5.2.5.5s-.2.5-.5.5H7c-.3 0-.5-.3-.5-.5M14 4.6h2v3h-2v-3zm-1.5 4h5v2.9c-1.6-.5-3.4-.5-5 0V8.6zM2 23.6c0 .3-.2.5-.5.5s-.5-.3-.5-.5v-8c0-.3.2-.5.5-.5s.5.2.5.5v8zm1-1.5v-5h3.9c-.5 1.6-.5 3.4 0 5H3zm12 5c-4.1 0-7.5-3.4-7.5-7.5s3.4-7.5 7.5-7.5 7.5 3.4 7.5 7.5-3.4 7.5-7.5 7.5m8.1-5c.5-1.6.5-3.4 0-5H27v5h-3.9zm5.9 1.5c0 .3-.2.5-.5.5s-.5-.2-.5-.5v-8c0-.3.2-.5.5-.5s.5.2.5.5v8z"/></svg>