<svg xmlns="http://www.w3.org/2000/svg" xmlns:xlink="http://www.w3.org/1999/xlink" viewBox="0 0 30 30"><defs><path id="a" d="M0 0h30v30H0z"/></defs><clipPath id="b"><use xlink:href="#a" overflow="visible"/></clipPath><path clip-path="url(#b)" fill="#F4EBDE" d="M15 29.5c-1 0-2.1-.2-3-.6l-4.6-2c-1.7-.7-3.4-1.2-5.2-1.4l-1.5-.2c-.2 0-.4-.2-.4-.5v-4.7c0-.1 0-.2.1-.3.1-.2 2.8-3.7 7-2.8 2.3.5 4.2 1.5 5.4 2.2.8.5 1.8.8 2.9.8H20c.8 0 1.5.4 1.9 1l4-4.6c.8-1 2-1.7 3.3-1.7h.3c.2 0 .3.1.4.2.1.1.1.3 0 .5l-3.6 8.1c-.8 1.8-2.4 3.1-4.3 3.6l-.6.2-3.6 1.7c-.9.3-1.9.5-2.8.5M1.1 24.4l1.1.1c1.9.2 3.8.7 5.5 1.5l4.6 2c1.6.7 3.5.7 5.1.1l3.7-1.5h.1l.7-.2c1.6-.4 3-1.5 3.6-3l3.3-7.4c-.8.1-1.6.6-2.1 1.3l-4.4 5.1v.1c0 1.2-1 2.2-2.2 2.2h-6.4c-.8 0-1.7.1-2.5.4l-.2-.7-.2-.4c.9-.3 1.8-.4 2.8-.4H20c.7 0 1.2-.6 1.2-1.2 0-.7-.6-1.2-1.2-1.2h-4.6c-1.2 0-2.4-.3-3.4-.9-1-.9-2.8-1.8-5-2.3-3.1-.7-5.4 1.7-5.9 2.3v4.1zM19.3 14.8c-.7 0-1.6-.2-2.5-.7-.1-.1-.2-.2-.2-.3 0-.1-.9-2.6.5-4.5 1-1.3 2.9-2 5.6-1.8.2 0 .4.2.5.5 0 .2.2 4.8-2.1 6.3-.6.3-1.2.5-1.8.5m-1.9-1.5c1.3.6 2.3.7 3 .2 1.4-.9 1.7-3.6 1.7-5-2.1-.1-3.6.4-4.3 1.4-.9 1.2-.5 2.9-.4 3.4M11.9 8.4a5 5 0 01-2.8-.8C7.7 6.5 7 4.5 7.1 1.5c0-.3.2-.5.5-.5.2 0 5.2-.3 6.9 2.2.8 1.2.7 2.7-.2 4.6l-.3.3c-.1 0-1 .3-2.1.3m1.9-.8zM8.1 2c0 2.4.5 4 1.6 4.8 1.3 1 3.2.6 3.8.4.7-1.4.7-2.6.2-3.4C12.6 2.3 9.6 2 8.1 2"/><path clip-path="url(#b)" fill="#F4EBDE" d="M15.7 20.9c-.1 0-.1 0 0 0-.3 0-.5-.3-.5-.5 0-.6.1-1.1.1-1.6.2-3.4.1-11.5-5-13.7-.2-.1-.4-.4-.3-.6.1-.2.4-.4.6-.3 3 1.3 4.9 4.6 5.4 9.4.1.4.1.9.1 1.3 1.3-3.4 3.4-4.6 3.5-4.6.2-.1.5 0 .7.2.1.2 0 .5-.2.7 0 0-3.2 1.9-4 7.7-.1 1-.1 1.6-.2 1.7.2.1 0 .3-.2.3"/></svg>