<svg xmlns="http://www.w3.org/2000/svg" xmlns:xlink="http://www.w3.org/1999/xlink" viewBox="0 0 30 30"><defs><path id="a" d="M0 0h30v30H0z"/></defs><clipPath id="b"><use xlink:href="#a" overflow="visible"/></clipPath><path clip-path="url(#b)" fill="#F4EBDE" d="M18.8 19.6V3.9a3.7 3.7 0 10-7.4 0v15.9c-1.1 1-1.8 2.5-1.8 4s.5 2.9 1.6 4.1c1.1 1.1 2.5 1.8 4 1.8h.2c1.5 0 2.9-.6 4-1.6 1.1-1.1 1.7-2.5 1.7-4.1-.2-1.7-1-3.3-2.3-4.4m-.4 7.7c-.9.9-2 1.3-3.3 1.3-1.2 0-2.3-.5-3.1-1.4-.8-.9-1.3-2-1.2-3.2 0-1.3.6-2.5 1.6-3.3.1-.1.2-.3.2-.5V3.9c0-1.4 1.1-2.5 2.5-2.5s2.5 1.1 2.5 2.5v15.9c0 .2.1.4.3.5 1.2.8 1.9 2.2 1.9 3.7 0 1.3-.5 2.4-1.4 3.3"/><path clip-path="url(#b)" fill="#F4EBDE" d="M17.2 21.3l-.8-.5V12c0-.3-.3-.6-.6-.6h-1.5c-.3 0-.6.3-.6.6v9l-.6.5c-.7.6-1.1 1.5-1.2 2.5 0 .9.3 1.7.9 2.4.6.7 1.4 1 2.3 1.1h.1c.9 0 1.7-.3 2.3-1 .6-.6 1-1.5 1-2.4.1-1.1-.4-2.1-1.3-2.8M14.4 9.6h1.5c.3 0 .6-.3.6-.6s-.3-.6-.6-.6h-1.5c-.3 0-.6.3-.6.6 0 .4.2.6.6.6M14.4 6.7h1.5c.3 0 .6-.3.6-.6s-.3-.6-.6-.6h-1.5c-.3 0-.6.3-.6.6s.2.6.6.6"/></svg>