<svg width="100" height="100" fill="none" xmlns="http://www.w3.org/2000/svg"><path d="M98.7 68.3c-1.6-2.1-4.4-3-7-2.2l-10.1 3.4V33.3h4.9c1.5 0 2.8-.9 3.2-2.3.5-1.4 0-2.9-1.2-3.8L52 .7c-1.2-.9-2.9-.9-4.1 0L36.7 8.9V5c0-2.8-2.2-5-5-5h-5c-2.8 0-5 2.2-5 5v14.8l-10.3 7.5c-1.2.9-1.7 2.4-1.2 3.8s1.8 2.3 3.2 2.3h4.9v25H18c-.7-2-2.6-3.3-4.7-3.3H5c-2.8 0-5 2.2-5 5v35c0 2.8 2.2 5 5 5h8.3c1.4 0 2.8-.6 3.7-1.7h41.8c2.4 0 4.8-.7 6.9-1.9l31.2-19c1.5-.9 2.6-2.4 2.9-4.2.4-1.8 0-3.6-1.1-5zM13.3 30l11-8c.4-.3.7-.8.7-1.3V5c0-.9.7-1.7 1.7-1.7h5c.9 0 1.7.7 1.7 1.7v7.2c0 .6.4 1.2.9 1.5.6.3 1.2.2 1.7-.1L50.1 3.3C89.1 31.7 86.8 30 86.6 30H80c-.9 0-1.7.7-1.7 1.7v38.9c-20.1 6.7-17.5 6.1-19.9 6.1 2-5.5-3-11.7-9.4-11.7h-8.7c-3.1 0-6.1-1.1-8.5-3a17.2 17.2 0 00-10.2-3.7V31.7c0-.9-.7-1.7-1.7-1.7h-6.6zm0 66.7H5c-.9 0-1.7-.7-1.7-1.7V60c0-.9.7-1.7 1.7-1.7h8.3c.9 0 1.7.7 1.7 1.7v35c0 .9-.7 1.7-1.7 1.7zm83.3-24.1c-.2.8-.6 1.5-1.3 1.9L64 93.5a9.8 9.8 0 01-5.2 1.5H18.3V61.7c3.8 0 7.4-.3 11.5 3 3 2.4 6.7 3.7 10.5 3.7H49c4.5 0 8.2 4.8 5.6 8.3H44.5c-3.3 0-6.5 1-9.2 2.8l-1.2.8c-.8.5-1 1.5-.5 2.3.5.8 1.5 1 2.3.5 2.4-1.9 5.5-3 8.6-3 16.2 0 15.8.1 17.5-.4l30.8-10.3c1-.3 2.1-.1 2.8.6.8.5 1.2 1.6 1 2.6" fill="#DF0926"/><path d="M41.7 45.8c0-.9-.7-1.7-1.7-1.7-.9 0-1.7.7-1.7 1.7 0 4.6 4.4 8.4 10 9.1v1.8c0 .9.7 1.7 1.7 1.7.9 0 1.7-.7 1.7-1.7v-1.8c5.6-.6 10-4.5 10-9.1s-4.4-8.4-10-9.1V25.1c3.8.6 6.7 2.9 6.7 5.7 0 .9.7 1.7 1.7 1.7.9 0 1.7-.7 1.7-1.7 0-4.6-4.4-8.4-10-9.1V20c0-.9-.7-1.7-1.7-1.7-.9 0-1.7.7-1.7 1.7v1.8c-5.6.6-10 4.5-10 9.1s4.4 8.4 10 9.1v11.6c-3.8-.6-6.7-3-6.7-5.8zm16.6 0c0 2.8-2.9 5.2-6.7 5.7V40.1c3.8.6 6.7 3 6.7 5.7zm-16.6-15c0-2.8 2.9-5.2 6.7-5.7v11.4c-3.8-.5-6.7-2.9-6.7-5.7" fill="#DF0926"/></svg>