<svg width="77" height="76" fill="none" xmlns="http://www.w3.org/2000/svg"><path d="M47.5 14.6A14.4 14.4 0 1061.9.2C54 .2 47.5 6.7 47.5 14.6zM61.9 2.8c6.5 0 11.7 5.3 11.7 11.7 0 6.4-5.3 11.7-11.7 11.7-6.5 0-11.7-5.3-11.7-11.7 0-6.4 5.2-11.7 11.7-11.7" fill="#DF0926"/><path d="M61.9 18.5c-.7 0-1.3-.6-1.3-1.3H58c0 1.7 1.1 3.1 2.6 3.7v2.8h2.6v-2.6h2.6v-3.9c0-2.2-1.8-3.9-3.9-3.9-.7 0-1.3-.6-1.3-1.3v-1.3h1.3c.7 0 1.3.6 1.3 1.3h2.6c0-1.7-1.1-3.1-2.6-3.7V5.5h-2.6V8H58v4c0 2.2 1.8 3.9 3.9 3.9.7 0 1.3.6 1.3 1.3v1.3h-1.3zm-6.5-3.9c0 .7-.6 1.3-1.3 1.3-.7 0-1.3-.6-1.3-1.3 0-.7.6-1.3 1.3-1.3.7 0 1.3.6 1.3 1.3zm15.6 0c0 .7-.6 1.3-1.3 1.3-.7 0-1.3-.6-1.3-1.3 0-.7.6-1.3 1.3-1.3.7 0 1.3.6 1.3 1.3zm-2.6 16.9v5.2h-5.2V42H58v5.2h-5.2v5.2h-5.2v10.7c-1.2-1-2.5-1.9-3.9-2.5l-10.2-4.4c-.1 0-.2-.1-.2-.1 7-.7 9.7-2.4 9.8-2.5l.6-.4V32.8A16.99 16.99 0 0024.1 16l-2.6.6c-6.8 2.2-11.7 8.6-11.7 16.1V53l.6.4c.1.1 2.8 1.8 9.8 2.5-.1 0-.1.1-.2.1L9.8 60.4a15.1 15.1 0 00-9.1 14v1.3h52.2v-1.3c0-1.3-.2-2.7-.5-3.9l-.9-2.6c-.3-.7-.7-1.4-1.1-2v-.6H76c.1-.3.1-.6.2-.9v-33h-7.8v.1zM12.3 51.6V32.8a14.4 14.4 0 1128.8 0v18.8c-1.1.5-3.9 1.5-9.1 1.9v-.7c4-2.8 6.5-7.3 6.5-12.4v-6.2H36c-1.4 0-2.8-.5-4-1.4l-2.3-1.9a8.93 8.93 0 00-11-.2L15 33.5v6.9c0 5.1 2.5 9.7 6.5 12.4v.7c-5.3-.4-8.1-1.4-9.2-1.9zm14.3.8c-5.4-1.5-9.1-6.4-9.1-12v-5.6l2.7-2c2.2-1.7 5.6-1.6 7.7.1l2.3 1.9c1.6 1.2 3.5 1.9 5.5 2v3.6c.1 5.6-3.7 10.5-9.1 12zm3.4 4.1c-.6.5-1.7 1.1-3.4 1.1s-2.8-.6-3.4-1.1c.4-.7.7-1.5.7-2.3.7.3 1.5.6 2.3.8l.3.1.5-.1c.8-.2 1.6-.5 2.3-.8.1.8.3 1.6.7 2.3zm14.9 16.8H3.2c.4-3.6 2.3-6.8 5.2-8.9l2.6-1.5 2.6-1.1s2.3-.9 4.1-1.8l3.2-1.4c.2-.1.3-.2.5-.2.7.7 1.9 1.5 3.6 1.8 1.1.2 1.8.1 3.4 0 1.7-.3 2.9-1.1 3.6-1.8.1.1.3.2.5.2l3.2 1.4c2.1.9 4.1 1.8 4.1 1.8l2.6 1.1 2.6 1.5c2.9 2.1 4.8 5.3 5.2 8.9h-5.3zm7.8-10.4h-2.6V55h2.6v7.9zm5.3 0h-2.6v-13H58v13zm5.2 0h-2.6V44.6h2.6v18.3zm5.2 0h-2.6V39.4h2.6v23.5zm5.2 0H71V34.1h2.6v28.8z" fill="#DF0926"/></svg>