<svg xmlns="http://www.w3.org/2000/svg" xmlns:xlink="http://www.w3.org/1999/xlink" viewBox="0 0 30 30"><defs><path id="a" d="M0 0h30v30H0z"/></defs><clipPath id="b"><use xlink:href="#a" overflow="visible"/></clipPath><path clip-path="url(#b)" fill="#F4EBDE" d="M26.2 7.1c-1.9 0-3.5-1.6-3.5-3.5S24.3.1 26.2.1s3.5 1.6 3.5 3.5-1.6 3.5-3.5 3.5m0-5.8c-1.3 0-2.3 1-2.3 2.3 0 1.3 1 2.3 2.3 2.3 1.3 0 2.3-1 2.3-2.3 0-1.2-1-2.3-2.3-2.3M15.5 6.6H.5C.3 6.6 0 6.3 0 6c0-2 1.7-3.6 3.7-3.6C4.5 1 6 .1 7.7.1c1.4 0 2.7.6 3.5 1.6.3-.1.6-.1 1-.1 2.2 0 3.9 1.8 3.9 4V6c0 .3-.3.6-.6.6M1.2 5.4H15c-.1-1.4-1.3-2.6-2.8-2.6-.3 0-.7.1-1 .2-.2.1-.5 0-.7-.2-.6-.9-1.7-1.5-2.8-1.5-1.3 0-2.6.8-3.2 2-.1.2-.3.3-.6.3h-.3c-1.2 0-2.1.7-2.4 1.8M29.1 23.7H28v-6.5l.2.1c.1.1.2.1.3.1.1 0 .2 0 .3-.1.2-.1.3-.3.3-.5v-3.2c0-.2-.1-.4-.2-.5L21 7.4c-.2-.1-.5-.1-.7 0L16.8 10l-1.6-1.2c-.2-.1-.5-.1-.7 0L12.9 10 9.4 7.4c-.2-.1-.5-.1-.7 0L.8 13.2c-.1.1-.2.3-.2.5v3.2c0 .2.1.4.3.5.1 0 .2.1.3.1.1 0 .2 0 .3-.1l.2-.1v6.5H.6c-.3 0-.6.3-.6.6v5c0 .3.3.6.6.6h28.5c.3 0 .6-.3.6-.6v-5c0-.5-.3-.7-.6-.7M20.6 8.6L28 14v1.7l-7-5.1c-.2-.1-.4-.1-.6 0l-1.3 1-1.2-.9 2.7-2.1zm2.5 6l-3.2-2.3.7-.5 6.3 4.6v7.3h-4.6v-5.1l.2.1c.1.1.3.1.4 0 .2-.1.3-.3.3-.5V15c.2-.1.1-.3-.1-.4m-8.2-4.7l7.4 5.4V17H22l-6.8-5c-.2-.1-.4-.1-.6 0h-.1l-6.8 5-.2.1v-1.7l7.4-5.5zm1.8 11.7H13c-.3 0-.6.3-.6.6v4H8.6v-8.5l6.3-4.6 6.3 4.6v8.5h-3.8v-4c-.1-.4-.3-.6-.7-.6m-.5 4.6h-2.6v-3.5h2.6v3.5zm-9.5-7.4c.1 0 .1.1.2.1s.3 0 .4-.1l.2-.1v5.1H2.8v-7.3l6.3-4.6.7.5-3.2 2.3c-.1.1-.2.2-.2.4V18.4c-.1.1.1.3.3.4m-5-4.8l7.4-5.4 2.8 2.1-1.2.9-1.3-1c-.2-.2-.5-.2-.7 0l-7 5.1V14zm26.8 14.7H1.2V24.7h6.3v2.5h14.8V24.6h6.3v4.1z"/><path clip-path="url(#b)" fill="#F4EBDE" d="M14.9 20.3c-1.4 0-2.5-1.1-2.5-2.5s1.1-2.5 2.5-2.5 2.5 1.1 2.5 2.5-1.2 2.5-2.5 2.5m0-3.8c-.7 0-1.4.6-1.4 1.4 0 .7.6 1.3 1.4 1.3.7 0 1.3-.6 1.3-1.3 0-.8-.6-1.4-1.3-1.4"/></svg>