<svg xmlns="http://www.w3.org/2000/svg" xmlns:xlink="http://www.w3.org/1999/xlink" viewBox="0 0 30 30"><defs><path id="a" d="M0 0h30v30H0z"/></defs><clipPath id="b"><use xlink:href="#a" overflow="visible"/></clipPath><path clip-path="url(#b)" fill="#F4EBDE" d="M15 29.3A14.3 14.3 0 1115 .7a14.3 14.3 0 010 28.6m0-27.6a13.3 13.3 0 10-.01 26.61A13.3 13.3 0 0015 1.7"/><path clip-path="url(#b)" fill="#F4EBDE" d="M15 29.3c-4.1 0-7.4-6.3-7.4-14.3S10.9.7 15 .7C19.1.7 22.4 7 22.4 15S19.2 29.3 15 29.3m0-27.6c-3.5 0-6.4 6.1-6.4 13.3s3 13.3 6.4 13.3c3.5 0 6.4-6.1 6.4-13.3S18.5 1.7 15 1.7"/><path clip-path="url(#b)" fill="#F4EBDE" d="M15 9.7c-3.8 0-7.4-1.5-10.1-4.2-.1 0-.1-.1-.1-.3 0-.1.1-.3.1-.3 5.6-5.6 14.6-5.6 20.2 0 .1.1.1.2.1.3 0 .1-.1.3-.1.4-2.7 2.6-6.3 4.1-10.1 4.1M6 5.2c2.5 2.3 5.7 3.5 9 3.5s6.6-1.3 9-3.5C18.9.5 11.1.5 6 5.2M15 29.3c-4.1 0-7.9-1.7-10.7-4.8-.2-.2-.2-.5 0-.7 5.3-5.9 14.3-6.4 20.2-1.1.4.4.8.7 1.1 1.1.2.2.2.5 0 .7A13.9 13.9 0 0115 29.3m-9.6-5.1c5.1 5.3 13.5 5.5 18.8.4l.4-.4c-5.1-5.3-13.5-5.5-18.8-.4l-.4.4"/><path clip-path="url(#b)" fill="#F4EBDE" d="M15 29.3c-.3 0-.5-.2-.5-.5V1.2c0-.3.2-.5.5-.5s.5.2.5.5v27.6c0 .3-.2.5-.5.5"/><path clip-path="url(#b)" fill="#F4EBDE" d="M28.8 15.5H1.2c-.3 0-.5-.2-.5-.5s.2-.5.5-.5h27.6c.3 0 .5.2.5.5s-.2.5-.5.5"/></svg>