<svg viewBox="0 0 24 24" xmlns="http://www.w3.org/2000/svg" xmlns:xlink="http://www.w3.org/1999/xlink" fill="#df0024"><path d="M16.94 6.91l-1.41 1.45a5.24 5.24 0 010 7.28l1.41 1.45c1.27-1.31 2.05-3.11 2.05-5.09s-.78-3.79-2.05-5.09zM19.77 4l-1.41 1.45a9.42 9.42 0 010 13.1l1.4 1.45A11.34 11.34 0 0023 12.01c0-3.13-1.23-5.96-3.23-8.01zM7.06 6.91c-1.27 1.3-2.05 3.1-2.05 5.09s.78 3.79 2.05 5.09l1.41-1.45a5.24 5.24 0 010-7.28L7.06 6.91zM5.64 5.45L4.24 4A11.34 11.34 0 001 11.99c0 3.13 1.23 5.96 3.23 8.01l1.41-1.45a9.42 9.42 0 010-13.1z"/><circle cx="12" cy="12" r="3"/></svg>