<svg width="100" height="88" fill="none" xmlns="http://www.w3.org/2000/svg"><path d="M47.8 21.4c0-.8.2-1.5.6-2.1.4-.5 1.1-.8 1.9-.8.9 0 1.5.3 2.1 1 .4.5.7 1.3.7 2.2 0 .4.4.8.9.7l4.4-.1c.5 0 .9-.4.9-.9-.1-1.9-.7-3.5-1.9-4.8a8.46 8.46 0 00-4.6-2.6v-3.3c0-.4-.3-.7-.7-.7h-2.7c-.4 0-.7.3-.7.7V14c-2 .3-3.7 1-4.9 2.3-1.4 1.3-2.1 3-2.1 5.1 0 2.3.7 4 2 5.2 1.3 1.2 3.4 2.3 6.3 3.5 1.2.5 2 1 2.5 1.6.5.5.7 1.3.7 2.2 0 .8-.2 1.5-.7 2-.5.5-1.1.8-2 .8-1.1 0-1.9-.3-2.6-1-.5-.5-.9-1.4-1-2.5 0-.4-.4-.8-.9-.8l-4.4.1c-.5 0-.9.4-.9.9.1 2.3.9 4.1 2.3 5.4 1.5 1.4 3.4 2.2 5.6 2.4v3c0 .4.3.7.7.7H52c.4 0 .7-.3.7-.7v-3.1c1.8-.3 3.3-1 4.4-2.1 1.3-1.3 2-3 2-5.1 0-2.2-.7-4-2-5.2-1.3-1.2-3.4-2.4-6.2-3.6a6.7 6.7 0 01-2.5-1.6c-.4-.6-.6-1.3-.6-2.1M8.1 60.5c-2.1-2.3-3.6-4.8-4-7.9l-.1-.9-2.6-24.5c-.1-1.2.3-2.4 1.2-3.2 1.1-.9 2.9-1.2 4.3.3.9 1.1 1.4 4.4 1.6 5.3.5 3.2 1.1 7.8 1.2 11v.7c.1 1.4.4 2.7 1 4 3.3 7.1 9.8 16 9.8 16l.4.5c.3.4.8.5 1.2.3.5-.3.6-.9.4-1.3l-8.7-14.1a3.6 3.6 0 011.3-4.8c1.7-1 3.9-.5 4.9 1.1l9 11.6c.6.8 1.7 1.9 2.5 2.4 8.1 5.8 9.2 11.8 9.9 14.8 0 0 .1.7.1 1.7 0 .8 0 1.8-.2 2.8l-.5 9.7c0 .7-.6 1.3-1.3 1.3l-15.2-.1c-.7 0-1.3-.6-1.3-1.3l-.3-8L8.1 60.5zM10.5 26c.3.9.4 1.7.6 2.6.5 2.8 1.1 7.8 1.2 10.4v.8c.3-.3.6-.5 1-.7.4-.3.9-.5 1.4-.6 0 0 0-.1.1-.1-.3-2.5-1.2-7.3-1.9-9.8-.4-1.3-1.1-2.2-2.4-2.6v0zm4.9 3.5c.4 1.8 1.4 5.2 1.7 7l.2 1.2v.3c.7 0 1.5.2 2.2.4-.2-1.6-1.3-4.9-1.7-6.4-.5-1.2-1.2-2.1-2.4-2.5v0zM77.1 86l.3-8 14.5-17.4c2.1-2.3 3.6-4.8 4-7.9l.1-.9 2.5-24.5c.1-1.2-.3-2.4-1.2-3.2-1.1-.9-2.9-1.2-4.3.3-.9 1.1-1.4 4.4-1.6 5.3-.5 3.2-1.1 7.8-1.2 11v.7c-.1 1.4-.4 2.7-1 4-3.3 7.1-9.8 16-9.8 16l-.2.6c-.3.4-.8.5-1.2.3-.5-.3-.6-.9-.4-1.3l8.7-14.1c.9-1.6.4-3.8-1.3-4.8-1.7-1-3.9-.5-4.9 1.1l-9 11.6c-.6.8-1.7 1.9-2.5 2.4C60.5 63 59.4 69 58.7 72c0 0-.1.7-.1 1.7 0 .8 0 1.8.2 2.8l.5 9.7c0 .7.6 1.3 1.3 1.3l15.2-.1c.7-.1 1.3-.7 1.3-1.4zm10.6-46.2V39c.1-2.7.7-7.6 1.2-10.4.1-.8.3-1.7.6-2.6-1.3.4-2 1.3-2.3 2.6-.7 2.5-1.5 7.3-1.9 9.8 0 0 0 .1.1.1.5.2.9.4 1.4.6.2.2.6.4.9.7v0zm-4.8-3.3c.2-1.8 1.3-5.1 1.7-7-1.2.4-1.9 1.3-2.3 2.5-.4 1.5-1.5 4.8-1.7 6.4.7-.3 1.4-.4 2.2-.4v-.3l.1-1.2zM72.8 17.2c-.4 1.4.1 3 1.4 3.9l1.1.8c1.7 1.2 2 3.6.6 5.2l-.9 1c-1 1.1-1.2 2.8-.4 4.1l.7 1.2c1 1.8.2 4.2-1.7 5l-1.3.5c-1.4.6-2.3 2-2.2 3.5l.1 1.4c.1 2.1-1.6 3.9-3.7 3.7l-1.4-.1c-1.5-.1-2.9.8-3.5 2.2l-.5 1.3c-.8 2-3.1 2.8-5 1.8L55 52c-1.3-.7-3-.5-4.1.5l-1 .9a3.5 3.5 0 01-5.2-.5l-.8-1.1c-.9-1.3-2.4-1.8-3.9-1.4l-1.3.4c-2 .6-4.1-.7-4.5-2.8l-.2-1.3c-.3-1.5-1.4-2.6-2.9-2.9l-1.4-.2c-2.1-.3-3.4-2.4-2.8-4.4l.4-1.3c.4-1.4-.1-3-1.4-3.9l-1.1-.8a3.5 3.5 0 01-.6-5.2l.9-1c1-1.1 1.2-2.8.4-4.1l-.7-1.2c-1-1.8-.2-4.2 1.7-5l1.3-.5c1.4-.6 2.3-2 2.2-3.5l-.1-1.4c-.1-2.1 1.6-3.9 3.7-3.7l1.4.1c1.5.1 2.9-.8 3.5-2.2l.5-1.3c.8-2 3.1-2.8 5-1.8l1 .6c1.3.7 3 .5 4.1-.5l1-.9c1.6-1.4 4-1.2 5.2.5l.8 1.1C57 4.4 58.5 5 60 4.5l1.3-.4c2-.6 4.1.7 4.5 2.8l.2 1.4c.3 1.5 1.4 2.6 2.9 2.9l1.4.2c2.1.3 3.4 2.4 2.8 4.4l-.3 1.4v0z" stroke="#F4EBDE" stroke-miterlimit="10" stroke-linecap="square"/></svg>