<svg width="99" height="100" fill="none" xmlns="http://www.w3.org/2000/svg"><path d="M91.6 37.6V36c0-14.7-10.2-27.3-24.5-30.4v-4c0-.9-.7-1.6-1.6-1.6h-9.8c-1 0-1.7.7-1.7 1.6v4c-2.8.6-7.2 1.9-11.8 5.2-6.6 4.8-9.5 10.9-10.6 13.7h3.6c.9-2.1 2.6-5 5.3-7.9 1.9-1.9 3.7-3.3 5.3-4.3v7.2h3.3v-9C50.7 10 52.3 9.4 54 9v15.5c0 .9.7 1.6 1.6 1.6h9.8c.9 0 1.6-.7 1.6-1.6V9c1.7.4 3.3 1 4.9 1.7v9h3.3v-7.2c1.8 1.1 3.4 2.4 4.9 3.9 5.2 5.2 8.2 12.3 8.1 19.7v1.6h-4.9v-6.5c0-.9-.7-1.6-1.6-1.6H72c-.9 0-1.6.7-1.6 1.6V36h3.3v-3.3h6.5v4.9h-4.9v3.3h16.4c1.8 0 3.3 1.5 3.3 3.3 0 1.8-1.5 3.3-3.3 3.3h-23v3.3h22.9c3.6 0 6.5-2.9 6.5-6.5.1-3.7-2.8-6.7-6.5-6.7zM63.8 22.9h-6.5V3.3h6.5v19.6z" fill="#DF0024"/><path d="M1.6 70.4h7.7c.6 2.1 1.4 4.1 2.5 6l-5.5 5.5c-.6.6-.6 1.7 0 2.3l9.3 9.3c.6.6 1.7.6 2.3 0l5.5-5.5c1.9 1.1 3.9 1.9 6 2.5v7.7c0 .9.7 1.6 1.6 1.6h13.1c.9 0 1.6-.7 1.6-1.6v-7.7c2.1-.6 4.1-1.4 6-2.5l5.5 5.5c.6.6 1.7.6 2.3 0l9.3-9.3c.6-.6.6-1.7 0-2.3l-5.5-5.5c1.1-1.9 1.9-3.9 2.5-6h7.7c.9 0 1.6-.7 1.6-1.6V55.6c0-.9-.7-1.6-1.6-1.6h-7.7c-.6-2.1-1.4-4.1-2.5-6l5.5-5.5c.6-.6.6-1.7 0-2.3l-9.3-9.3c-.6-.6-1.7-.6-2.3 0l-5.5 5.5c-1.9-1.1-3.9-1.9-6-2.5v-7.7c0-.9-.7-1.6-1.6-1.6h-13c-.9 0-1.6.7-1.6 1.6v7.7c-2.1.6-4.1 1.4-6 2.5L18 30.9c-.6-.6-1.7-.6-2.3 0l-9.3 9.3c-.6.6-.6 1.7 0 2.3l5.5 5.5c-1.1 1.9-1.9 3.9-2.5 6H1.6c-.9 0-1.6.7-1.6 1.6v13.1c0 .9.7 1.7 1.6 1.7zm1.7-13.1h7.4c.8 0 1.4-.5 1.6-1.3.6-2.6 1.7-5.1 3.1-7.5.4-.6.3-1.5-.2-2L10 41.3l6.9-6.9 5.2 5.2c.5.5 1.4.6 2 .2 2.3-1.4 4.8-2.5 7.5-3.1.7-.2 1.3-.8 1.3-1.6v-7.4h9.8v7.4c0 .8.5 1.4 1.3 1.6 2.6.6 5.1 1.7 7.5 3.1.6.4 1.5.3 2-.2l5.2-5.2 6.9 6.9-5.2 5.2c-.5.5-.6 1.4-.2 2 1.4 2.3 2.5 4.8 3.1 7.5.2.7.8 1.3 1.6 1.3H72v9.8h-7.4c-.8 0-1.4.5-1.6 1.3-.6 2.6-1.7 5.1-3.1 7.5-.4.6-.3 1.5.2 2l5.2 5.2-6.8 6.9-5.2-5.2c-.5-.5-1.4-.6-2-.2-2.3 1.4-4.8 2.5-7.5 3.1-.7.2-1.3.8-1.3 1.6v7.4h-9.8v-7.4c0-.8-.5-1.4-1.3-1.6-2.6-.6-5.1-1.7-7.5-3.1-.6-.4-1.5-.3-2 .2L16.8 90l-6.9-7 5.2-5.2c.5-.5.6-1.4.2-2-1.4-2.3-2.5-4.8-3.1-7.5-.2-.7-.8-1.3-1.6-1.3H3.3v-9.7z" fill="#DF0024"/><path d="M37.6 81.8c10.8 0 19.6-8.8 19.6-19.6s-8.8-19.6-19.6-19.6S18 51.3 18 62.2c0 10.8 8.8 19.6 19.6 19.6zm0-36a16.41 16.41 0 11-16.4 16.4c.1-9.1 7.4-16.4 16.4-16.4zm27.1 4.9h4v-3.2h-5.3l-.5.9.8 2 1 .3z" fill="#DF0024"/><path d="M28.3 62.6l8.1 8.2L50 57.2l-2.4-2.4-11.2 11.1-5.7-5.7-2.4 2.4z" fill="#DF0024"/></svg>