<svg width="64" height="64" fill="none" xmlns="http://www.w3.org/2000/svg"><path d="M5 13h10c2.2 0 4-1.8 4-4 0-.2 0-.4-.1-.5 1.2-.7 2.1-2 2.1-3.5 0-2.2-1.8-4-4-4-1.3 0-2.5.7-3.3 1.7-.9-1-2.3-1.7-3.7-1.7-2.4 0-4.4 1.7-4.9 4A4.1 4.1 0 001 9c0 2.2 1.8 4 4 4zm32 0h4.2c.4 1.2 1.5 2 2.8 2h16c1.7 0 3-1.3 3-3s-1.3-3-3-3a4.62 4.62 0 00-6.2-3.7C53 2.8 50.7 1 48 1c-1.2 0-2.2.3-3.1.9A5.03 5.03 0 0037.1 5 4.1 4.1 0 0033 9c0 2.2 1.8 4 4 4zm26 23c0-5.5-4.5-10-10-10s-10 4.5-10 10c0 5.2 4 9.4 9 9.9V48h-4v2h4v7H33V44h4v-2h-4v-6.1A10.98 10.98 0 0032 14a10.97 10.97 0 00-1 21.9V38h-4v2h4v17H13v-3h4v-2h-4v-6.1c5-.5 9-4.8 9-9.9 0-5.5-4.5-10-10-10S2 30.5 2 36c0 5.2 4 9.4 9 9.9V48H7v2h4v7H2c-.6 0-1 .4-1 1v4c0 .6.4 1 1 1h60c.6 0 1-.4 1-1v-4c0-.6-.4-1-1-1h-8v-3h4v-2h-4v-6.1c5-.5 9-4.7 9-9.9z" stroke="#F4EBDE" stroke-miterlimit="10" stroke-linecap="square"/></svg>