<svg width="92" height="56" fill="none" xmlns="http://www.w3.org/2000/svg"><path d="M81.3 22.7L90 28l-8.8 5.3-4.8-2.9-3.9-2.4 3.9-2.4 4.9-2.9zm0-1.2L76 24.7 70.6 28l5.3 3.2 5.3 3.2L92 28l-10.7-6.5zM46 29.8l4.8 2.9 3.9 2.4-3.9 2.4-4.8 3-4.8-2.9-3.9-2.4 3.9-2.4 4.8-3zm0-1.1l-5.3 3.2-5.3 3.2 5.3 3.2 5.3 3.2 5.3-3.2 5.3-3.2-5.3-3.2-5.3-3.2zm-11.8-6l4.8 2.9 4 2.4-3.9 2.4-4.8 2.9-7.6-4.6-1.2-.7 3.9-2.4 4.8-2.9zm0-1.2l-5.3 3.2-5.3 3.3 2.5 1.5 8.1 5 5.3-3.2 5.3-3.2-5.3-3.2-5.3-3.4zm11.8-6l4.8 2.9 3.9 2.4-3.9 2.4-4.8 3-4.8-2.9-3.9-2.4 3.9-2.4 4.8-3zm0-1.1l-5.3 3.2-5.3 3.2 5.3 3.2 5.3 3.2 5.3-3.2 5.3-3.2-5.3-3.2-5.3-3.2zm11.8 8.3l4.8 2.9 3.9 2.4-1.1.7-7.6 4.6-4.8-2.9-4-2.4 3.9-2.4 4.9-2.9zm0-1.2l-5.3 3.2-5.4 3.3 5.3 3.2 5.3 3.2 8.1-5 2.5-1.5-5.3-3.2-5.2-3.2zm11.7-6l8.8 5.3-3.9 2.4-4.8 2.9-4.8-2.9-3.9-2.4 3.9-2.4 4.7-2.9zm0-1.1l-5.3 3.2-5.3 3.2 5.3 3.2 5.3 3.2 5.3-3.2 5.3-3.2-10.6-6.4zm-11.7-6l8.8 5.3-3.9 2.4-4.9 2.9-4.8-2.9-4-2.4 3.9-2.4 4.9-2.9zm0-1.2l-5.3 3.2-5.3 3.2 5.3 3.2 5.3 3.2 5.3-3.2 5.3-3.2-10.6-6.4zM46 1.2l8.8 5.3-3.9 2.4-4.9 3L41.2 9l-3.9-2.4L46 1.2zm0-1.1L35.3 6.6l5.3 3.2 5.3 3.2 5.3-3.2 5.3-3.2L46 .1zM34.2 8.4l4.8 2.9 3.9 2.4-3.9 2.4-4.8 2.9-4.8-2.9-3.9-2.4 8.7-5.3zm0-1.2l-10.7 6.5 5.3 3.2 5.3 3.2 5.3-3.2 5.3-3.2-5.3-3.2-5.2-3.3zm-11.7 8.3l4.8 2.9 3.9 2.4-3.9 2.4-4.8 2.9-4.8-2.9-3.9-2.4 8.7-5.3zm0-1.1l-10.7 6.5 5.3 3.2 5.3 3.2 5.3-3.2 5.3-3.2-5.3-3.2-5.2-3.3zm-11.8 8.3l4.8 2.9 3.9 2.4-3.9 2.4-4.8 2.9L2 28l8.7-5.3zm0-1.2L0 28l10.7 6.5 5.3-3.2 5.3-3.2-5.3-3.2-5.3-3.4zm11.8 8.3l2.2 1.4 6.5 4-1.6 1-7.1 4.3-8.8-5.3 3.9-2.4 4.9-3zm0-1.1l-5.3 3.2-5.3 3.2 10.7 6.5 7.7-4.7 3-1.8-7.9-4.8-2.9-1.6zM34.2 37l4.8 2.9 3.9 2.4-3.9 2.4-4.8 2.9-8.8-5.3 6.1-3.7 2.7-1.6zm0-1.2L31 37.7l-7.5 4.6 10.7 6.5 5.3-3.2 5.3-3.2-5.2-3.4-5.4-3.2zM46 44.1l4.8 2.9 3.9 2.4-8.7 5.4-8.8-5.3 3.9-2.4 4.9-3zm0-1.2l-5.3 3.2-5.3 3.2L46 55.9l10.7-6.5-5.3-3.2-5.4-3.3zM57.8 37l2.7 1.6 6.1 3.7-8.8 5.3-4.8-2.9-4-2.4 3.9-2.4 4.9-2.9zm0-1.2L52.4 39l-5.3 3.2 5.3 3.2 5.3 3.2 10.7-6.5-7.5-4.6-3.1-1.7zm11.7-6l4.8 2.9 3.9 2.4-8.8 5.3-7.1-4.3-1.6-1 6.5-4 2.3-1.3zm0-1.1l-2.8 1.7-7.9 4.8 3 1.8 7.7 4.7 10.7-6.5-5.3-3.2-5.4-3.3z" fill="#F4EBDE"/></svg>