<svg xmlns="http://www.w3.org/2000/svg" xmlns:xlink="http://www.w3.org/1999/xlink" viewBox="0 0 512 512"><defs><path id="a" d="M0 0h512v512H0z"/></defs><clipPath id="b"><use xlink:href="#a" overflow="visible"/></clipPath><path clip-path="url(#b)" fill="#DF0024" d="M449.7 239.8c-.5-7.5-7.1-13.2-14.6-12.7s-13.2 7.1-12.7 14.6c.3 4.7.5 9.4.5 14.2 0 109.1-88.7 197.8-197.8 197.8S27.4 365.1 27.4 256 116.1 58.2 225.1 58.2c43.2 0 84.2 13.7 118.6 39.5 6 4.5 14.6 3.3 19.2-2.7 4.5-6 3.3-14.6-2.7-19.2-39.2-29.4-85.9-45-135.1-45C101 30.9 0 131.9 0 256s101 225.1 225.1 225.1 225.1-101 225.1-225.1c.1-5.4-.1-10.9-.5-16.2"/><path clip-path="url(#b)" fill="#DF0024" d="M496.4 61.8a53.48 53.48 0 00-75.5 0L223.8 258.9 153.9 189a53.48 53.48 0 00-75.5 0 53.48 53.48 0 000 75.5l120.3 120.3c6.9 6.9 16 10.3 25 10.3 9.1 0 18.1-3.4 25-10.3l247.6-247.6a53.26 53.26 0 00.1-75.4M477 117.9L229.5 365.5a8.03 8.03 0 01-11.3 0L97.8 245.1a26.13 26.13 0 010-36.8 25.8 25.8 0 0118.4-7.6c6.7 0 13.3 2.5 18.4 7.6l71.9 71.9c4.6 4.6 10.8 7.2 17.3 7.2 6.6 0 12.7-2.6 17.3-7.2L440.3 81.1a26.13 26.13 0 0136.8 0 26.04 26.04 0 01-.1 36.8"/></svg>