<svg xmlns="http://www.w3.org/2000/svg" xmlns:xlink="http://www.w3.org/1999/xlink" viewBox="0 0 30 30"><defs><path id="a" d="M0 0h30v30H0z"/></defs><clipPath id="b"><use xlink:href="#a" overflow="visible"/></clipPath><path clip-path="url(#b)" fill="#F4EBDE" d="M7.7 2.2c-.4-.4-1-.6-1.6-.4-.7-.8-1.9-.8-2.6 0-.2.1-.3.3-.4.4-.8-.1-1.5.5-1.7 1.2-.1.8.5 1.5 1.2 1.7h4.9c.9 0 1.5-.7 1.5-1.5 0-.7-.6-1.3-1.3-1.4m-.1 1.9H2.9c-.3 0-.5-.2-.5-.5s.2-.5.5-.5c.1 0 .2 0 .2.1.2.1.5 0 .7-.1 0 0 0-.1.1-.2 0-.5.6-.8 1.1-.7.3 0 .5.2.6.5.1.2.4.3.7.2l.1-.1c.2-.2.5-.1.7 0v.1c.1.2.3.3.5.2.3.1.4.3.4.5 0 .3-.1.5-.4.5M17.4 3.1c-.4-.4-1-.6-1.6-.4-.7-.8-1.9-.8-2.6 0-.1.1-.2.3-.3.4-.8-.1-1.5.4-1.7 1.1-.2.8.3 1.5 1.1 1.7h5c.8 0 1.4-.6 1.4-1.4 0-.8-.5-1.4-1.3-1.4M17.3 5h-4.7c-.3 0-.5-.2-.5-.5s.2-.5.5-.5c.1 0 .2 0 .2.1.2.1.5.1.7-.1 0 0 0-.1.1-.2.1-.5.6-.8 1.1-.7.3 0 .5.2.6.5.1.2.4.3.7.2l.1-.1c.2-.2.5-.1.7 0v.1c.1.2.3.3.5.2.3 0 .5.2.5.5s-.2.5-.5.5M28.8 19.2c.3-.9 0-2-.7-2.4-.7-.4-1.4.1-1.7 1v.1c-.6-.1-1.1.4-1.3 1.2-.7-.1-1.3.7-1.4 1.8v.1c0 .2 0 .4.1.6H22v-1.2h.9v-1.2H22v-2c.2.1.4.2.7.2 1.1 0 2-1.2 2-2.7v-.4c1.2-.3 2-1.9 1.7-3.5-.1-.7-.4-1.4-.8-1.8 0-.4-.1-.8-.2-1.1.1-.3.2-.7.2-1 0-1.2-.7-2.2-1.6-2.2-.3 0-.6.1-.8.3-.6-.5-1.4-.4-1.8.5-.3-.1-.5-.2-.7-.2-1 0-1.7 1.1-1.7 2.4v.1c-.5.2-.9 1-.9 1.7v.1c-.9.4-1.5 1.6-1.3 3 .2 1.1.9 1.8 1.7 1.8 0 1.3.8 2.4 1.7 2.4.3 0 .6-.1.9-.4V18h-.9v1.2h.9v2.4h-1.3c.1.2.3.5.4.8l2.2.3c0-.1.1-.2.2-.2.9 0 1.7-.1 2.6 0 .4-.1.9-.2 1.3-.1.1 0 .2.1.3.3.9-.1 1.8-.2 2.7-.2v-1.4c-.2-.8-.3-1.4-.7-1.9zm-7.5-7.4l-1.1-1.1-.5 1 1.6 1.7v1.5c-.1 0-.1.1-.2.2-.3.6-.8.6-1.2.2-.3-.4-.4-1-.2-1.5.1-.3 0-.7-.2-.8a.3.3 0 00-.4 0c-.4.3-1 .1-1.2-.5-.2-.6 0-1.3.4-1.7.1-.1.3-.1.4-.1.2.1.4-.2.5-.6v-.4-.3c0-.3.2-.6.4-.6.2.1.4-.2.5-.6V8v-.4c0-.7.4-1.2.9-1.2.2 0 .4.1.6.3.2.2.4.2.6-.1 0-.1.1-.2.1-.4s.2-.5.4-.5c.1 0 .3.1.3.2.1.1.2.2.4.2.1 0 .3-.1.4-.2.1-.2.3-.3.5-.3.4 0 .7.4.7.9 0 .2 0 .4-.2.6-.1.2-.1.6 0 .8.1.2.2.5.2.7V9c0 .2 0 .5.2.6.6.5.9 1.6.5 2.5-.2.6-.7.9-1.1.9h-.1c-.3 0-.4.2-.5.6v.3c.1.2.1.4.1.7 0 .9-.5 1.5-1.1 1.5-.2 0-.5-.1-.7-.3v-2.4l1.6-1.7-.5-1-1.1 1.2V8.8h-.9v3zm7.4 9.8h-3.5c-.2 0-.4-.2-.4-.6 0-.4.2-.6.4-.6.1 0 .1.1.2.1.1.1.3.1.5 0 .1-.1.2-.4.2-.6v-.1c0-.4.2-.6.4-.6.1 0 .1.1.2.1.1.1.3.1.5 0 .1-.1.2-.4.2-.6v-.1c0-.4.2-.6.4-.6.3 0 .4.2.4.6 0 .2 0 .3-.1.4-.2.2-.2.6 0 .9 0 .1 0 .1.1.1.3.2.4.6.4 1v.6z"/><path clip-path="url(#b)" fill="#F4EBDE" d="M28.8 27.4H1.5V23h27.3v4.4zm.4-5.6H1.1c-.3 0-.5.5-.5 1.1v4.4c0 .6.2 1.1.5 1.1h28.1c.3 0 .5-.5.5-1.1V23c0-.7-.3-1.2-.5-1.2"/><path clip-path="url(#b)" fill="none" stroke="#F4EBDE" stroke-miterlimit="10" d="M4.5 12.8h11.7v9.5H4.5z"/><path clip-path="url(#b)" fill="none" stroke="#F4EBDE" stroke-miterlimit="10" d="M6.3 15.8h4.4v6.5H6.3z"/><path clip-path="url(#b)" fill="#F4EBDE" d="M12.1 15.8h2.6v4.1h-2.6z"/><path clip-path="url(#b)" fill="none" stroke="#F4EBDE" stroke-miterlimit="10" d="M10.3 6.2l-8.1 6.6h16.3z"/></svg>