<svg xmlns="http://www.w3.org/2000/svg" xmlns:xlink="http://www.w3.org/1999/xlink" viewBox="0 0 361.7 613.9"><defs><path id="a" d="M0 0h510v1100H0z"/></defs><clipPath id="b"><use xlink:href="#a" overflow="visible"/></clipPath><path clip-path="url(#b)" fill="none" stroke="#1B1315" stroke-width="1.53" stroke-miterlimit="10" d="M87.4 122.2h24.7V324H87.4zM87.4 298.8h24.7M87.4 249.2h24.7M87.4 222.6h24.7M87.4 197.2h24.7M87.4 171.8h24.7M87.4 146.4h24.7M87.4 122.2l24.7 24.2M87.4 146.4l24.7-24.2M87.4 147.6l24.7 24.2M87.4 171.8l24.7-24.2M87.4 173l24.7 24.2M87.4 197.2l24.7-24.2M87.4 198.4l24.7 24.2M87.4 222.6l24.7-24.2M87.4 223.8l24.7 24.2M87.4 248l24.7-24.2M87.4 249.2l24.7 24.2M87.4 273.4l24.7-24.2M87.4 274.6l24.7 24.2M87.4 298.8l24.7-24.2"/><g clip-path="url(#b)"><defs><path id="c" d="M0 0h510v1100H0z"/></defs><clipPath id="d"><use xlink:href="#c" overflow="visible"/></clipPath><path clip-path="url(#d)" fill="none" stroke="#1B1315" stroke-width="1.53" stroke-miterlimit="10" d="M87.4 196.4V425c8.2-.1 16.5-.1 24.7-.2V196.4M87.4 324h24.7M87.4 298.1l24.7 24.7M87.4 322.8l24.7-24.7M87.4 324l24.7 24.2M87.4 348.2l24.7-24.2M87.4 349.4l24.7 24.2M87.4 373.6l24.7-24.2"/><path clip-path="url(#d)" fill="none" stroke="#1B1315" stroke-width="1.53" stroke-miterlimit="10" d="M87.4 222.2V425c8.2-.1 16.5-.1 24.7-.2V220.1M87.4 399.4h24.7M87.4 349.8h24.7M87.4 323.9l24.7 24.7M87.4 348.6l24.7-24.7M87.4 349.8l24.7 24.2M87.4 374l24.7-24.2M87.4 375.2l24.7 24.2M87.4 399.4l24.7-24.2"/><path clip-path="url(#d)" fill="none" stroke="#1B1315" stroke-width="1.53" stroke-miterlimit="10" d="M87.4 375.2h24.7V577H87.4zM87.4 551.8h24.7M87.4 502.2h24.7M87.4 475.6h24.7M87.4 450.2h24.7M87.4 424.8h24.7M87.4 399.4h24.7M87.4 375.2l24.7 24.2M87.4 399.4l24.7-24.2M87.4 400.6l24.7 24.2M87.4 424.8l24.7-24.2M87.4 426l24.7 24.2M87.4 450.2l24.7-24.2M87.4 451.4l24.7 24.2M87.4 475.6l24.7-24.2M87.4 476.8l24.7 24.2M87.4 501l24.7-24.2M87.4 502.2l24.7 24.2M87.4 526.4l24.7-24.2M87.4 527.6l24.7 24.2M87.4 551.8l24.7-24.2M87.4 577h24.7M87.4 551.1l24.7 24.7M87.4 575.8l24.7-24.7M87.4 577l24.7 24.2M87.4 601.2l24.7-24.2M87.4 602.8h24.7M87.4 576.9l24.7 24.7M87.4 575.5l-.1 35M111.9 575.4v35M87.4 601.6l24.7-24.7"/><path clip-path="url(#d)" fill="#3A292B" d="M78.6 606.7h42.3v7.3H78.6z"/><path clip-path="url(#d)" fill="#1B1315" d="M84.9 600.3h30.6v7.3H84.9z"/><path clip-path="url(#d)" fill="none" stroke="#1B1315" stroke-width="1.53" stroke-miterlimit="10" d="M87.4 13.1h24.7v57H87.4zM87.4 37.3h24.7M87.4 13.1l24.7 24.2M87.4 37.3l24.7-24.2M87.4 38.5l24.7 24.2M87.4 62.7l24.7-24.2M252.9 107.3V82.6H130.4L115 107.3zM156 82.6v24.7M180.2 82.6L156 107.3M156 82.6l24.2 24.7M180.2 82.6v24.7M204.4 82.6l-24.2 24.7M180.2 82.6l24.2 24.7"/><path clip-path="url(#d)" fill="none" stroke="#1C151D" stroke-width="1.53" stroke-miterlimit="10" d="M204.4 82.6v24.7"/><path clip-path="url(#d)" fill="none" stroke="#1B1315" stroke-width="1.53" stroke-miterlimit="10" d="M228.7 82.6l-24.3 24.7M204.4 82.6l24.3 24.7M228.7 82.6v24.7M252.9 82.6l-24.2 24.7M228.7 82.6l24.2 24.7M252.9 82.6v24.7M154.8 82.6l-24.2 24.7M130.6 82.6v24.7M130.6 82.6l24.2 24.7M4.5 107.3V82.6h73.9l18.4 24.7zM53 82.6v24.7M28.8 82.6L53 107.3M53 82.6l-24.2 24.7"/><path clip-path="url(#d)" fill="none" stroke="#1C151D" stroke-width="1.53" stroke-miterlimit="10" d="M28.8 82.6v24.7"/><path clip-path="url(#d)" fill="none" stroke="#1B1315" stroke-width="1.53" stroke-miterlimit="10" d="M4.5 82.6l24.3 24.7"/><path clip-path="url(#d)" fill="none" stroke="#1C151D" stroke-width="1.53" stroke-miterlimit="10" d="M28.8 82.6L4.5 107.3"/><path clip-path="url(#d)" fill="none" stroke="#1B1315" stroke-width="1.53" stroke-miterlimit="10" d="M54.2 82.6l24.2 24.7M78.4 82.6v24.7M78.4 82.6l-24.2 24.7"/><path clip-path="url(#d)" fill="#3A292B" d="M84 109.4h35v12.8H84z"/><path clip-path="url(#d)" fill="#1B1315" d="M84 109.4h40.9v3.5H84z"/><path clip-path="url(#d)" fill="#F40011" d="M124.9 80.7l-12.4-19.8H84v48.5h40.9z"/><path clip-path="url(#d)" fill="none" stroke="#E1D2A1" stroke-width=".51" stroke-miterlimit="10" d="M122.7 81.2l-11-17.6H86.2v43.1h36.5z"/><g clip-path="url(#d)"><defs><path id="e" d="M90.6 70.1h27.7v13.4H90.6z"/></defs><clipPath id="f"><use xlink:href="#e" overflow="visible"/></clipPath><path clip-path="url(#f)" fill="#D19F8D" d="M118.3 83.5l-8.4-13.4H90.6v13.3z"/></g><path clip-path="url(#d)" fill="#F1E7D0" d="M116.3 82.6l-7.2-11.5H92.6v11.4z"/><g clip-path="url(#d)"><defs><path id="g" d="M90.6 85.2h10v4.4h-10z"/></defs><clipPath id="h"><use xlink:href="#g" overflow="visible"/></clipPath><path clip-path="url(#h)" fill="#D19F8D" d="M90.6 85.2h10v4.4h-10z"/></g><path clip-path="url(#d)" fill="#1B1315" d="M90.6 85.2h10v2.2h-10z"/><path clip-path="url(#d)" fill="none" stroke="#4D4D4D" stroke-width=".71" stroke-miterlimit="10" d="M216 128.4v-27M234 128.4v-27"/><path clip-path="url(#d)" fill="#D90017" d="M227.6 248.8a3.98 3.98 0 01-5.7 0l-45-45a3.98 3.98 0 010-5.7l45-45c1.6-1.6 4.2-1.6 5.7 0l45 45c1.6 1.6 1.6 4.2 0 5.7l-45 45z"/><path clip-path="url(#d)" fill="#F40011" d="M223.9 151.9c-.8.2-1.5.5-2.1 1.1l-45 45a3.98 3.98 0 000 5.7l45 45c.6.6 1.3.9 2.1 1.1v-97.9z"/><path clip-path="url(#d)" fill="none" stroke="#E1D2A1" stroke-width=".61" stroke-miterlimit="10" d="M227.2 242.9a3.5 3.5 0 01-5 0l-39.5-39.5a3.5 3.5 0 010-5l39.5-39.5a3.5 3.5 0 015 0l39.5 39.5a3.5 3.5 0 010 5l-39.5 39.5z"/><path clip-path="url(#d)" fill="#FFF" d="M228.7 163.5a3.8 3.8 0 11-7.6 0 3.8 3.8 0 017.6 0"/><path clip-path="url(#d)" fill="#3A292B" d="M226.7 149v-4.7h-2.8v8s6.7-1.2 6.7 4.2c0 2.3-1.9 4.2-4.2 4.2-1 0-1.8-.3-2.5-.9-1.4.2-2.3 1.6-2.5 2.2 1.3 1.2 3.1 2 5 2 4.1 0 7.5-3.4 7.5-7.5.1-4-3.2-7.4-7.2-7.5"/><path clip-path="url(#d)" fill="#6B6B6B" d="M222.2 135.5h5.8v10.6h-5.8z"/><g clip-path="url(#d)"><defs><path id="i" d="M222.2 135.5h2.9v10.6h-2.9z"/></defs><clipPath id="j"><use xlink:href="#i" overflow="visible"/></clipPath><path clip-path="url(#j)" fill="#6B6B6B" d="M222.2 135.5h2.9v10.6h-2.9z"/></g><path clip-path="url(#d)" fill="#3A292B" d="M195.5 97.5h43.6v10h-43.6z"/><path clip-path="url(#d)" fill="#1B1315" d="M195.5 102.5h43.6v5h-43.6zM234.3 128.3a9.39 9.39 0 11-18.8 0 9.39 9.39 0 1118.8 0"/><path clip-path="url(#d)" fill="#6B6B6B" d="M227.5 131.9c-2 1.4-4.8 1-6.2-1-1.4-2-1-4.8 1-6.2 2-1.4 4.8-1 6.2 1 1.5 2 1 4.7-1 6.2"/><g clip-path="url(#d)"><defs><path id="k" d="M220.5 123.8h8.1v7h-8.1z"/></defs><clipPath id="l"><use xlink:href="#k" overflow="visible"/></clipPath><path clip-path="url(#l)" fill="#6B6B6B" d="M221.3 130.8c-1.4-2-1-4.8 1-6.2 2-1.4 4.8-1 6.2 1l-7.2 5.2z"/></g><path clip-path="url(#d)" fill="#3A292B" d="M9 75.4h36.3v33.4H9z"/><path clip-path="url(#d)" fill="#1B1315" d="M9 92.1h36.3v16.7H9z"/><path clip-path="url(#d)" fill="#3A292B" d="M12.9 49.6h28.6v26.2H12.9z"/><path clip-path="url(#d)" fill="#1B1315" d="M12.9 62.7h28.6v13.1H12.9z"/></g><g clip-path="url(#b)"><path fill="#E1D2A1" d="M248.1 194.4v8.1h-6.2l6.2-8.1zm4.3 17.7v-5.3h3.2v-4.3h-3.2v-15.4h-3.3l-12 15.4v4.3h10.5v5.3h4.8zm-22.9-12.4a5.28 5.28 0 01-2.3 3.3 3.45 3.45 0 01-3.6 0c-.5-.3-1-.8-1.4-1.3-.4-.6-.7-1.3-.9-2s-.3-1.7-.3-2.6.1-1.8.3-2.6.5-1.5.9-2.1c.4-.6.9-1 1.4-1.3a3.45 3.45 0 013.6 0c.5.3 1 .8 1.4 1.3.4.6.7 1.3.9 2.1s.3 1.7.3 2.6-.1 1.8-.3 2.6zm4.5-7c-.5-1.3-1.1-2.5-1.9-3.4-.8-1-1.8-1.7-2.9-2.3a9.1 9.1 0 00-7.4 0 8 8 0 00-2.9 2.3c-.8 1-1.5 2.1-1.9 3.4-.5 1.3-.7 2.8-.7 4.4s.2 3 .7 4.3c.5 1.3 1.1 2.5 1.9 3.4.8 1 1.8 1.7 2.9 2.3 1.1.5 2.4.8 3.7.8 1.3 0 2.5-.3 3.7-.8a8 8 0 002.9-2.3c.8-1 1.5-2.1 1.9-3.4s.7-2.8.7-4.3-.3-3-.7-4.4zm-28.3 1.7v8.1h-6.2l6.2-8.1zm4.2 17.7v-5.3h3.2v-4.3h-3.2v-15.4h-3.3l-12 15.4v4.3h10.5v5.3h4.8z"/></g><g clip-path="url(#b)"><defs><path id="m" d="M510 1100H0V0h510"/></defs><clipPath id="n"><use xlink:href="#m" overflow="visible"/></clipPath><path clip-path="url(#n)" fill="#6E000F" d="M228.4 583.6l-2.3 1.4-2.5 7.9 7.1-3.3-1.4-5.1z"/><path clip-path="url(#n)" fill="#F40011" d="M247.2 550c0-1.5-2-2.1-2.8-.9 0 .1-.1.1-.1.2l-18.2 35.5 3.5 1 16.2-28.1c.3-.5.9-.7 1.3-.4V550z"/><path clip-path="url(#n)" fill="#6E000F" d="M247.2 555.8c-.5-.3-1.1-.2-1.4.3L228 585.4l1.7.5 16.2-28.1c.3-.5.9-.7 1.3-.4v-1.6z"/><path clip-path="url(#n)" fill="#F40011" d="M247.5 552.5c-.2-.3-.5-.4-.7-.6v5.3c.3.1.5.2.6.5l20.4 28.7 7.2-6.8-27.5-27.1z"/><path clip-path="url(#n)" fill="#6E000F" d="M247.3 556.1c-.1-.2-.3-.3-.5-.4v1.5c.3.1.5.2.6.5l20.4 28.7 2.3-3.4-22.8-26.9z"/><path clip-path="url(#n)" fill="#0F0809" d="M300.1 598.9h-14.5v-19.3l14.5 5.1zM267.8 599.3h28.4v5.2h-28.4z"/><path clip-path="url(#n)" fill="#0F0809" d="M300.5 613.9h-38.2c-2.8 0-5.1-2.3-5.1-5.1v-.1c0-2.8 2.3-5.1 5.1-5.1h38.2c2.8 0 5.1 2.3 5.1 5.1v.1c0 2.9-2.3 5.1-5.1 5.1"/><path clip-path="url(#n)" fill="#312423" d="M298.2 611.7h-33.7c-2.4 0-3.7-1.3-3.7-2.9v-.1c0-1.6 1.3-2.9 3.7-2.9h33.7c2.4 0 3.7 1.3 3.7 2.9v.1c0 1.6-1.3 2.9-3.7 2.9"/><path clip-path="url(#n)" fill="#716461" d="M300.1 608.8c0 1.3-1.1 2.4-2.4 2.4s-2.4-1.1-2.4-2.4 1.1-2.4 2.4-2.4 2.4 1 2.4 2.4M267.8 608.8c0 1.3-1.1 2.4-2.4 2.4-1.3 0-2.4-1.1-2.4-2.4s1.1-2.4 2.4-2.4c1.4-.1 2.4 1 2.4 2.4"/><path clip-path="url(#n)" fill="#0F0809" d="M269.2 608.2H294v1.1h-24.8zM269.6 606.9c0 .4-.3.7-.7.7-.4 0-.7-.3-.7-.7s.3-.7.7-.7c.4 0 .7.3.7.7M271.5 606.9c0 .4-.3.7-.7.7-.4 0-.7-.3-.7-.7s.3-.7.7-.7c.4 0 .7.3.7.7M273.5 606.9c0 .4-.3.7-.7.7-.4 0-.7-.3-.7-.7s.3-.7.7-.7c.4 0 .7.3.7.7M275.4 606.9c0 .4-.3.7-.7.7-.4 0-.7-.3-.7-.7s.3-.7.7-.7c.4 0 .7.3.7.7M277.3 606.9c0 .4-.3.7-.7.7-.4 0-.7-.3-.7-.7s.3-.7.7-.7c.4 0 .7.3.7.7M279.3 606.9c0 .4-.3.7-.7.7-.4 0-.7-.3-.7-.7s.3-.7.7-.7c.4 0 .7.3.7.7M281.2 606.9c0 .4-.3.7-.7.7-.4 0-.7-.3-.7-.7s.3-.7.7-.7c.4 0 .7.3.7.7M283.1 606.9c0 .4-.3.7-.7.7-.4 0-.7-.3-.7-.7s.3-.7.7-.7c.4 0 .7.3.7.7M285.1 606.9c0 .4-.3.7-.7.7-.4 0-.7-.3-.7-.7s.3-.7.7-.7c.3 0 .7.3.7.7M287 606.9c0 .4-.3.7-.7.7-.4 0-.7-.3-.7-.7s.3-.7.7-.7c.4 0 .7.3.7.7M288.9 606.9c0 .4-.3.7-.7.7-.4 0-.7-.3-.7-.7s.3-.7.7-.7c.4 0 .7.3.7.7M290.8 606.9c0 .4-.3.7-.7.7-.4 0-.7-.3-.7-.7s.3-.7.7-.7c.4 0 .7.3.7.7M292.8 606.9c0 .4-.3.7-.7.7-.4 0-.7-.3-.7-.7s.3-.7.7-.7c.4 0 .7.3.7.7M294.7 606.9c0 .4-.3.7-.7.7-.4 0-.7-.3-.7-.7s.3-.7.7-.7c.4 0 .7.3.7.7M269.6 610.5c0 .4-.3.7-.7.7-.4 0-.7-.3-.7-.7 0-.4.3-.7.7-.7.4.1.7.4.7.7M271.5 610.5c0 .4-.3.7-.7.7-.4 0-.7-.3-.7-.7 0-.4.3-.7.7-.7.4.1.7.4.7.7M273.5 610.5c0 .4-.3.7-.7.7-.4 0-.7-.3-.7-.7 0-.4.3-.7.7-.7.4.1.7.4.7.7M275.4 610.5c0 .4-.3.7-.7.7-.4 0-.7-.3-.7-.7 0-.4.3-.7.7-.7.4.1.7.4.7.7M277.3 610.5c0 .4-.3.7-.7.7-.4 0-.7-.3-.7-.7 0-.4.3-.7.7-.7.4.1.7.4.7.7M279.3 610.5c0 .4-.3.7-.7.7-.4 0-.7-.3-.7-.7 0-.4.3-.7.7-.7.4.1.7.4.7.7M281.2 610.5c0 .4-.3.7-.7.7-.4 0-.7-.3-.7-.7 0-.4.3-.7.7-.7.4.1.7.4.7.7M283.1 610.5c0 .4-.3.7-.7.7-.4 0-.7-.3-.7-.7 0-.4.3-.7.7-.7.4.1.7.4.7.7M285.1 610.5c0 .4-.3.7-.7.7-.4 0-.7-.3-.7-.7 0-.4.3-.7.7-.7.3.1.7.4.7.7M287 610.5c0 .4-.3.7-.7.7-.4 0-.7-.3-.7-.7 0-.4.3-.7.7-.7.4.1.7.4.7.7M288.9 610.5c0 .4-.3.7-.7.7-.4 0-.7-.3-.7-.7 0-.4.3-.7.7-.7.4.1.7.4.7.7M290.8 610.5c0 .4-.3.7-.7.7-.4 0-.7-.3-.7-.7 0-.4.3-.7.7-.7.4.1.7.4.7.7M292.8 610.5c0 .4-.3.7-.7.7-.4 0-.7-.3-.7-.7 0-.4.3-.7.7-.7.4.1.7.4.7.7M294.7 610.5c0 .4-.3.7-.7.7-.4 0-.7-.3-.7-.7 0-.4.3-.7.7-.7.4.1.7.4.7.7"/><path clip-path="url(#n)" fill="#6E000F" d="M276.9 584.7v4.7h-13.1v5.4h44.6v-6.5z"/><path clip-path="url(#n)" fill="#F40011" d="M262.9 592.2h45.6v10.1h-45.6z"/><path clip-path="url(#n)" fill="#F40011" d="M272.1 573.5h17.4v23.4h-26.6v-12.2z"/><path clip-path="url(#n)" fill="#0F0809" d="M294 594h11.6v1.6H294zM294 596.4h11.6v1.6H294z"/><path clip-path="url(#n)" fill="#F40011" d="M294 598.9h11.6v1.6H294z"/><path clip-path="url(#n)" fill="#F1E7D0" d="M273.4 575.3l-7.7 10.2v11.4l11.6-2.2v-19.4zM287 575.3h-8.4v19.2l8.4-1.6z"/><path clip-path="url(#n)" fill="#0F0809" d="M281.4 595.4h4.7v1.3h-4.7z"/><path clip-path="url(#n)" fill="#F40011" d="M230.3 588.2h-.1c-6.3.6-10.3 7.2-7.8 13l2.2 5h14.8l-1.3-3.9-3.6-.7-4.2-13.4z"/><path clip-path="url(#n)" fill="#1C2161" d="M229.5 585.4c0 .8-.6 1.4-1.4 1.4s-1.4-.6-1.4-1.4c0-.8.6-1.4 1.4-1.4s1.4.6 1.4 1.4M247.6 554.8c0 .8-.6 1.4-1.4 1.4-.8 0-1.4-.6-1.4-1.4 0-.8.6-1.4 1.4-1.4.8-.1 1.4.6 1.4 1.4"/><path clip-path="url(#n)" fill="#6C4455" d="M140.9 598.9H97v-15.7l43.9 3.2z"/><path clip-path="url(#n)" fill="#552C3E" d="M97 593.9h43.9v4.9H97z"/><path clip-path="url(#n)" fill="#342626" d="M140.9 587.9h-6.3v-1.5h-4.4v1.5H97v1.3h33.2v3.5h4.4v-3.5h6.3z"/><path clip-path="url(#n)" fill="#F40011" d="M152.3 571.8h-13.2l-5.4 11.5v15.6h27.7v-14.7z"/><path clip-path="url(#n)" fill="#6E000F" d="M133.7 587.1h27.7v11.8h-27.7z"/><path clip-path="url(#n)" fill="#0F0809" d="M156.5 601.5c0 6.5-5.3 11.8-11.8 11.8-6.5 0-11.8-5.3-11.8-11.8 0-6.5 5.3-11.8 11.8-11.8 6.5-.1 11.8 5.2 11.8 11.8"/><path clip-path="url(#n)" fill="#B4B5AC" d="M150.6 601.5c0 3.3-2.7 6-6 6s-6-2.7-6-6 2.7-6 6-6c3.3-.1 6 2.6 6 6"/><path clip-path="url(#n)" fill="#0F0809" d="M111.8 601.5c0 6.5-5.3 11.8-11.8 11.8-6.5 0-11.8-5.3-11.8-11.8 0-6.5 5.3-11.8 11.8-11.8 6.5-.1 11.8 5.2 11.8 11.8"/><path clip-path="url(#n)" fill="#B4B5AC" d="M106 601.5c0 3.3-2.7 6-6 6s-6-2.7-6-6 2.7-6 6-6 6 2.6 6 6"/><path clip-path="url(#n)" fill="#3C3F40" d="M147.3 601.5c0 1.5-1.2 2.7-2.7 2.7-1.5 0-2.7-1.2-2.7-2.7 0-1.5 1.2-2.7 2.7-2.7 1.5 0 2.7 1.2 2.7 2.7M102.6 601.5c0 1.5-1.2 2.7-2.7 2.7-1.5 0-2.7-1.2-2.7-2.7 0-1.5 1.2-2.7 2.7-2.7 1.5 0 2.7 1.2 2.7 2.7"/><path clip-path="url(#n)" fill="#F1E7D0" d="M157.1 583.3h-11.4v-8.2h6.9l5.1 7c.4.5 0 1.2-.6 1.2"/><path clip-path="url(#n)" fill="#F40011" d="M77.8 572.3l-3.3 5.7 39.5 13.7h12l12.9-22.5H162v-4.1h-26.6l-10 7.2z"/><path clip-path="url(#n)" fill="#6E000F" d="M115.6 575.3L110 587l4.2 1.5 6.6-13.2zM83.6 575.3l-1.3 2.3 8.8 3 2.7-5.3zM97.6 575.3l-3.1 6.5 4.3 1.4 4-7.9zM106.6 575.3l-4.4 9.1 4.3 1.4 5.3-10.5zM124.6 575.3l-6.4 13.3h6.4l7.2-13.3z"/><path clip-path="url(#n)" fill="#F40011" d="M93.8 575.3l-2.7 5.3 3.4 1.2 3.1-6.5zM102.8 575.3l-4 7.9 3.4 1.2 4.4-9.1zM111.8 575.3l-5.3 10.5 3.5 1.2 5.6-11.7zM120.8 575.3l-6.6 13.2.3.1h3.7l6.4-13.3z"/><path clip-path="url(#n)" fill="#0F0809" d="M145.7 585.2h4.2v1.3h-4.2z"/><path clip-path="url(#n)" fill="#D7812E" d="M379.8 569v1.3M379.8 566.9v1.8M379.8 570.6v.7"/><path clip-path="url(#n)" fill="#B75922" d="M379.8 568.7v.3M379.8 570.3v.3"/><path clip-path="url(#n)" fill="#D7812E" d="M378.9 586.3v1.3c.5.1 1 .1 1.4.2M378.9 584.2v1.8M380 588.1c-.3-.1-.7-.1-1-.2v.6"/><path clip-path="url(#n)" fill="#B75922" d="M378.9 586v.3M380.3 587.8c-.4-.1-.9-.2-1.4-.2v.3c.4 0 .7.1 1 .2"/><path clip-path="url(#n)" fill="#B4B5AC" d="M246.5 597.4h3.4v15.3h-3.4z"/><path clip-path="url(#n)" fill="#D4D5CD" d="M246.5 597.4h1.7v15.3h-1.7z"/><path clip-path="url(#n)" fill="#B4B5AC" d="M261.3 603.9h-26.5a2 2 0 01-2-2v-23.8c0-1.1.9-2 2-2h26.5a2 2 0 012 2v23.8a2 2 0 01-2 2"/><path clip-path="url(#n)" fill="#8F8F89" d="M258.1 601H238a2 2 0 01-2-2v-18c0-1.1.9-2 2-2h20.2a2 2 0 012 2v18c-.1 1.1-1 2-2.1 2"/><path clip-path="url(#n)" fill="#E5E4DF" d="M253.2 596.4h-9.7v-8.3h9.7v8.3zm-9.2-.5h8.6v-7.2H244v7.2z"/><path clip-path="url(#n)" fill="#E5E4DF" d="M255.1 588.6h-13.8l6.9-5 6.9 5zM243 588h10.4l-5.2-3.8-5.2 3.8z"/><path clip-path="url(#n)" fill="#E5E4DF" d="M252.3 587.2l-1.9-1.4v-2.4h1.9v3.8zm-1.3-1.6l.8.6V584h-.8v1.6zM250.6 594.5h-4.5V590h4.5v4.5zm-4-.6h3.4v-3.4h-3.4v3.4z"/><path clip-path="url(#n)" fill="#E5E4DF" d="M248.1 590.2h.5v4h-.5z"/><path clip-path="url(#n)" fill="#E5E4DF" d="M246.3 592h4v.5h-4zM257.4 588.4h.3v.2h-.3zM257 588.6h-.4v-.2h.4v.2zm-.9 0h-.4v-.2h.4v.2zM255 588.4h.3v.2h-.3zM256.6 589h.3v6.6h-.3z"/><path clip-path="url(#n)" fill="#E5E4DF" d="M256.7 596.1c.1-.2.2-.5.4-.7l-.4.1-.4-.1c.2.2.3.5.4.7M256.7 588.5c.1.2.2.5.4.7l-.4-.1-.4.1c.2-.2.3-.5.4-.7M257.4 596h.3v.2h-.3z"/><path clip-path="url(#n)" fill="#E5E4DF" d="M257 596.2h-.4v-.2h.4v.2zm-.7 0h-.4v-.2h.4v.2zM255.5 596.2h-.4v-.2h.4v.2zm-.8 0h-.4v-.2h.4v.2zm-.7 0h-.4v-.2h.4v.2zM252.9 596h.3v.2h-.3zM241.5 580.2h.2v.3h-.2zM241.7 582.3h-.2v-.4h.2v.4zm0-.9h-.2v-.4h.2v.4zM241.7 587.6h-.2v-.4h.2v.4zm0-.9h-.2v-.4h.2v.4zm0-.9h-.2v-.4h.2v.4zm0-.9h-.2v-.4h.2v.4zm0-.9h-.2v-.4h.2v.4zm0-.9h-.2v-.4h.2v.4zM241.5 588h.2v.3h-.2zM242.1 581.6h12.2v.3h-12.2z"/><path clip-path="url(#n)" fill="#E5E4DF" d="M254.8 581.7c-.2-.1-.5-.2-.7-.4l.1.4-.1.4c.2-.2.5-.3.7-.4M241.6 581.7c.2-.1.5-.2.7-.4l-.1.4.1.4c-.2-.2-.5-.3-.7-.4M254.8 580.2h.2v.3h-.2zM254.9 582.3h-.2v-.4h.2v.4zm0-.9h-.2v-.4h.2v.4zM254.9 587.6h-.2v-.4h.2v.4zm0-.9h-.2v-.4h.2v.4zm0-.9h-.2v-.4h.2v.4zm0-.9h-.2v-.4h.2v.4zm0-.9h-.2v-.4h.2v.4zm0-.9h-.2v-.4h.2v.4zM254.8 588h.2v.3h-.2zM252.8 599h.2v.3h-.2zM253 598.5h-.2v-.5h.2v.5zm0-1.1h-.2v-.5h.2v.5zM252.8 596.1h.2v.3h-.2zM244.3 598.1h8.1v.3h-8.1z"/><path clip-path="url(#n)" fill="#E5E4DF" d="M243.8 598.2c.2.1.5.2.7.4l-.1-.4.1-.4c-.2.2-.5.3-.7.4M252.9 598.2c-.2.1-.5.2-.7.4l.1-.4-.1-.4c.2.2.5.3.7.4M243.7 599h.2v.3h-.2zM243.8 598.5h-.2v-.5h.2v.5zm0-1.1h-.2v-.5h.2v.5zM243.7 596.1h.2v.3h-.2zM240 594.3h.3v.2h-.3zM242.4 594.4h-.5v-.2h.5v.2zm-1.1 0h-.5v-.2h.5v.2zM245.5 594.4h-.5v-.2h.5v.2zm-1 0h-.5v-.2h.5v.2zm-1.1 0h-.5v-.2h.5v.2zM246.1 594.3h.3v.2h-.3zM241 590.6h.3v3.3h-.3z"/><path clip-path="url(#n)" fill="#E5E4DF" d="M241.2 590.1c-.1.2-.2.5-.4.7l.4-.1.4.1c-.2-.2-.3-.4-.4-.7M241.2 594.4c-.1-.2-.2-.5-.4-.7l.4.1.4-.1c-.2.2-.3.5-.4.7M240 590h.3v.2h-.3z"/><path clip-path="url(#n)" fill="#E5E4DF" d="M242.4 590.2h-.5v-.2h.5v.2zm-1.1 0h-.5v-.2h.5v.2zM245.5 590.2h-.5v-.2h.5v.2zm-1 0h-.5v-.2h.5v.2zm-1.1 0h-.5v-.2h.5v.2zM246.1 590h.3v.2h-.3z"/><path clip-path="url(#n)" fill="#F6AA16" d="M214.7 600.2l-1-4c0-.5-.5-.8-.9-.7-.1 0-.2.1-.2.1-.2.5-.5 1-.7 1.5 0 .9 1 3.5 1.2 4.1l1.9 3.4 1.9-1-2.2-3.4z"/><path clip-path="url(#n)" fill="#E09D57" d="M216.9 603.4c.3.5.1 1.2-.5 1.5-.5.3-1.2.1-1.5-.5l2-1z"/><path clip-path="url(#n)" fill="#BF7C29" d="M215.1 604.6c0-.1-.1-.1-.1-.2l1.9-1c0 .1.1.1.1.2l-1.9 1z"/><path transform="rotate(-79.78 210.63 594.2)" clip-path="url(#n)" fill="#E09D57" d="M208.9 593.2h3.4v2h-3.4z"/><path clip-path="url(#n)" fill="#BF7C29" d="M209.9 592.3l-.4 2.2c.3.2.6.3 1 .4.3.1.7.1 1 0l.4-2.2-2-.4z"/><path clip-path="url(#n)" fill="#E09D57" d="M211.6 588.4a3 3 0 00-3.4 2c-.2 0-.4.3-.5.6-.1.3.1.6.3.7.1 1.3 1.1 2.4 2.4 2.7 1.6.3 3.2-.8 3.5-2.4.4-1.7-.6-3.3-2.3-3.6"/><path clip-path="url(#n)" fill="#0F0809" d="M211.7 587.8c-1.8-.3-3.4.9-3.7 2.7 0 0 .1-.1.3 0 .5.2.1.7.1.8l.3.1c.6-1.1 1.4-1.9 2.5-1.7.3 0 1.2 1 1.7 1.1.6.1 1.2-.2 1.3-.7.5-1.5-1.6-2.2-2.5-2.3"/><path clip-path="url(#n)" fill="#F40011" d="M215.1 590.2c0-.1-.4-.4-.4-.4.3-1.9-.7-3.7-2.6-4-1.9-.3-3.5.9-3.9 2.8 0 .1-.2.2-.2.4l4.3 2.1 2.8-.9z"/><path clip-path="url(#n)" fill="#6E000F" d="M212.7 590.4c-1.5-.2-4.1-1-4.4-1.8-.1.1-.2.3-.3.5-.1.4 1.9 1.2 2.4 1.5 0 0-.4.6 2.2 1.1 2.7.5 3.8-1.1 2.2-1.9.1.3-.1.8-2.1.6"/><path clip-path="url(#n)" fill="#F6AA16" d="M213.2 595.5l-5.5-1c-.3-.1-.7.2-.8.5l-1.6 8.6 6.8 1.2 1.5-8.5c.1.1.2-.7-.4-.8"/><path clip-path="url(#n)" fill="#434AA0" d="M214.3 607.3l-2-3.5h-2.7l2 3.5-.4 5.8h2.8zM205.3 607.3l-2.1 4.6 2.6 1.2 2.2-5.8.3-3.5-2.9-.2z"/><path clip-path="url(#n)" fill="#434AA0" d="M213.2 595.5l-1.3-.2-.3 3.2-2.3-.4-.4-3.3-1.3-.2c-.2.3-1.2 3.7-1.2 3.7l-1 5.4 6.8 1.2 1-5.4c-.1-.1.1-3.7 0-4"/><path transform="rotate(-79.8 209.14 602.22)" clip-path="url(#n)" fill="#0F0809" d="M208.7 598.8h.8v6.9h-.8z"/><path clip-path="url(#n)" fill="#0F0809" d="M222 610.1l-4.3-1.4 1.6-5.2 4.3 1.4c1.4.4 2.2 2 1.8 3.4v.1c-.5 1.3-2 2.1-3.4 1.7"/><path clip-path="url(#n)" fill="#8F8F89" d="M221.6 607.5l-23.9-7.4c-.2-.1-.4-.3-.3-.5.1-.2.3-.4.5-.3l23.9 7.4c.2.1.4.3.3.5-.1.3-.3.4-.5.3"/><path clip-path="url(#n)" fill="#F6AA16" d="M207.6 594.5a9 9 0 00-4.1 1.5l-2.8 3.1 1.5 1.6 2.2-3.2 2.3-.6c1.1-.3 1.1-2.4.9-2.4"/><path clip-path="url(#n)" fill="#E09D57" d="M202.2 600.6a1 1 0 01-1.5-.1 1 1 0 01.1-1.5l1.4 1.6z"/><path clip-path="url(#n)" fill="#BF7C29" d="M202.1 600.7c.1 0 .1-.1.2-.1l-1.5-1.6c-.1 0-.1.1-.1.2l1.4 1.5z"/></g></svg>