<svg width="1165" height="786" fill="none" xmlns="http://www.w3.org/2000/svg"><path d="M204.3 207.6h-47v383.2h47V207.6zM157.3 543h47M157.3 448.8h47M157.3 398.3h47M157.3 350.1h47M157.3 301.9h47M157.3 253.6h47M157.3 207.6l47 46M157.3 253.6l47-46M157.3 255.9l47 46M157.3 301.9l47-46M157.3 304.1l47 46M157.3 350.1l47-46M157.3 352.3l47 46M157.3 398.3l47-46M157.3 400.6l47 46M157.3 446.6l47-46M157.3 448.8l47 46M157.3 494.8l47-46M157.3 497l47 46M157.3 543l47-46" stroke="#332A29" stroke-width="2.91" stroke-miterlimit="10"/><path d="M157.3 348.6v423.1h47V348.6M157.3 685h47M157.3 590.8h47M157.3 541.6l47 47M157.3 588.6l47-47M157.3 590.8l47 46M157.3 636.8l47-46M157.3 639l47 46M157.3 685l47-46" stroke="#332A29" stroke-width="2.91" stroke-miterlimit="10"/><path d="M157.3 397.5v381.1l47-4v-381M157.3 734h47M157.3 639.8h47M157.3 590.6l47 47M157.3 637.6l47-47M157.3 639.8l47 46M157.3 685.8l47-46M157.3 688l47 46M157.3 734l47-46" stroke="#332A29" stroke-width="2.91" stroke-miterlimit="10"/><path d="M221 771.7h-80.3v13.8H221v-13.8z" fill="#574746"/><path d="M209.8 757.9h-58.1v13.8h58.1v-13.8z" fill="#332A29"/><path d="M204.3.5h-47v108.3h47V.5zM157.3 46.5h47M157.3.5l47 46M157.3 46.5l47-46M157.3 48.8l47 46M157.3 94.8l47-46M517.5 179.4v-46.9H239.3l-35 46.9h313.2zM287.5 132.5v46.9M333.5 132.5l-46 46.9M287.5 132.5l46 46.9M333.5 132.5v46.9M379.5 132.5l-46 46.9M333.5 132.5l46 46.9" stroke="#332A29" stroke-width="2.91" stroke-miterlimit="10"/><path d="M379.5 132.5v46.9" stroke="#352E35" stroke-width="2.91" stroke-miterlimit="10"/><path d="M425.5 132.5l-46 46.9M379.5 132.5l46 46.9M425.5 132.5v46.9M471.5 132.5l-46 46.9M425.5 132.5l46 46.9M471.5 132.5v46.9M517.5 132.5l-46 46.9M471.5 132.5l46 46.9M285.3 132.5l-46 46.9M239.3 132.5v46.9M239.3 132.5l46 46.9M0 179.4v-46.9h140.2l35 46.9H0zM92 132.5v46.9M46 132.5l46 46.9M92 132.5l-46 46.9" stroke="#332A29" stroke-width="2.91" stroke-miterlimit="10"/><path d="M46 132.5v46.9" stroke="#352E35" stroke-width="2.91" stroke-miterlimit="10"/><path d="M0 132.5l46 46.9" stroke="#332A29" stroke-width="2.91" stroke-miterlimit="10"/><path d="M46 132.5L0 179.4" stroke="#352E35" stroke-width="2.91" stroke-miterlimit="10"/><path d="M94.2 132.5l46 46.9M140.2 132.5v46.9M140.2 132.5l-46 46.9" stroke="#332A29" stroke-width="2.91" stroke-miterlimit="10"/><path d="M217.4 183.4h-66.5v24.3h66.5v-24.3z" fill="#574746"/><path d="M228.5 183.4h-77.6v6.7h77.6v-6.7z" fill="#332A29"/><path d="M228.5 129l-23.4-37.6h-54.2v92h77.6V129z" fill="#DF0926"/><path d="M224.3 129.9l-20.9-33.5h-48.3v81.9h69.2v-48.4z" stroke="#E8D9BA" stroke-width=".97" stroke-miterlimit="10"/><path d="M216 134.3l-15.9-25.5h-36.7v25.3l52.6.2z" fill="#DBB6A8"/><path d="M212.2 132.5l-13.6-21.9h-31.4v21.7l45 .2z" fill="#F4EBDE"/><path d="M182.5 137.4h-19.1v8.4h19.1v-8.4z" fill="#DBB6A8"/><path d="M182.5 137.4h-19.1v4.2h19.1v-4.2z" fill="#332A29"/><path d="M627.8 398.7a6.46 6.46 0 01-9.1 0l-71.2-71.2a6.46 6.46 0 010-9.1l71.2-71.2c2.5-2.5 6.6-2.5 9.1 0l71.2 71.2c2.5 2.5 2.5 6.6 0 9.1l-71.2 71.2z" fill="#CE132D"/><path d="M622 245.4c-1.2.2-2.3.8-3.3 1.7l-71.2 71.2a6.46 6.46 0 000 9.1l71.2 71.2c.9.9 2.1 1.5 3.3 1.7V245.4z" fill="#DF0926"/><path d="M627.3 389.3a5.67 5.67 0 01-8 0l-62.4-62.4a5.67 5.67 0 010-8l62.4-62.4c2.2-2.2 5.8-2.2 8 0l62.4 62.4c2.2 2.2 2.2 5.8 0 8l-62.4 62.4z" stroke="#E8D9BA" stroke-width=".97" stroke-miterlimit="10"/><path d="M628 266.9c0 3.3-2.7 6-6 6s-6-2.7-6-6 2.7-6 6-6 6 2.7 6 6z" fill="#fff"/><path d="M624.8 244v-7.5h-4.4v12.7s10.7-1.8 10.7 6.6c0 3.6-3 6.6-6.6 6.6-1.5 0-2.9-.5-4-1.4-2.2.4-3.7 2.5-4 3.5a11.82 11.82 0 0019.8-8.7c0-6.4-5.1-11.6-11.5-11.8z" fill="#574746"/><path d="M626.9 222.6h-9.2v16.8h9.2v-16.8z" fill="#8C8C8B"/><path d="M622.3 222.6h-4.6v16.8h4.6v-16.8z" fill="#8C8C8B"/><path d="M655.5 162.6h-69v15.8h69v-15.8z" fill="#574746"/><path d="M655.5 170.5h-69v7.9h69v-7.9z" fill="#332A29"/><path d="M354.7 179.4h301v-47c-89 0-178 0-267.4.1M425.5 132.5v46.9M471.5 132.5l-46 46.9M425.5 132.5l46 46.9M471.5 132.5v46.9M517.5 132.5l-46 46.9M471.5 132.5l46 46.9M517.5 132.5v46.9M563.5 132.5l-46 46.9M517.5 132.5l46 46.9M563.5 132.5v46.9M609.5 132.5l-46 46.9M563.5 132.5l46 46.9M609.5 132.5v46.9M655.5 132.5l-46 46.9M609.5 132.5l46 46.9" stroke="#332A29" stroke-width="2.91" stroke-miterlimit="10"/><path d="M609.8 211.2v-36.8M634.3 211.2v-36.8" stroke="#706F6F" stroke-width=".97" stroke-miterlimit="10"/><path d="M636.9 211.2c0 8.2-6.6 14.8-14.8 14.8-8.2 0-14.8-6.6-14.8-14.8 0-8.2 6.6-14.8 14.8-14.8 8.1-.1 14.8 6.6 14.8 14.8z" fill="#332A29"/><path d="M626.1 216.9a7.03 7.03 0 01-8.2-11.4c3.1-2.3 7.5-1.5 9.8 1.6 2.3 3.1 1.6 7.5-1.6 9.8z" fill="#8C8C8B"/><path d="M616.3 215.3a7.03 7.03 0 0111.4-8.2l-11.4 8.2z" fill="#8C8C8B"/><path d="M77.6 118.9h-69v63.3h69v-63.3z" fill="#574746"/><path d="M77.6 150.6h-69v31.7h69v-31.7z" fill="#332A29"/><path d="M70.2 69.9H15.9v49.8h54.3V69.9z" fill="#574746"/><path d="M70.2 94.8H15.9v24.9h54.3V94.8z" fill="#332A29"/><path d="M656.8 319.2v6.7h-5.1l5.1-6.7zm9.3 23.1v-6.9h4.9v-9.5h-4.9v-22.5h-7.2l-17.6 22.5v9.5h14.3v6.9h10.5zm-39.9-18.2c-.8 1.3-1.7 2-2.9 2-1.3 0-2.3-.7-3-2-.8-1.3-1.1-3.1-1.1-5.2 0-2.2.4-3.9 1.1-5.2.8-1.3 1.8-2 3-2s2.2.7 2.9 2c.8 1.3 1.1 3.1 1.1 5.2.1 2.1-.3 3.9-1.1 5.2zm10.7-12c-.7-2.1-1.8-3.8-3.1-5.3s-2.9-2.7-4.7-3.5c-1.8-.9-3.8-1.3-5.9-1.3-2.1 0-4.1.4-5.9 1.3-1.8.9-3.4 2-4.7 3.5a18.5 18.5 0 00-3.1 5.3 21.54 21.54 0 000 13.6c.7 2.1 1.8 3.8 3.1 5.3s2.9 2.7 4.7 3.5c1.8.8 3.8 1.3 5.9 1.3 2.1 0 4.1-.4 5.9-1.3 1.8-.8 3.4-2 4.7-3.5 1.3-1.5 2.3-3.3 3.1-5.3.7-2.1 1.1-4.3 1.1-6.8.1-2.5-.3-4.7-1.1-6.8zm-46.9 7.1v6.7h-5.1l5.1-6.7zm9.3 23.1v-6.9h4.9v-9.5h-4.9v-22.5h-7.2l-17.6 22.5v9.5h14.3v6.9h10.5z" fill="#E8D9BA"/><path d="M747 730.7l-4.3 2.4-4.7 14.5 13.1-6-2.6-9.3-1.5-1.6z" fill="#821721"/><path d="M781.2 669.3c0-2.7-3.6-3.9-5.1-1.6-.1.1-.1.2-.2.3l-33.2 64.9 6.5 1.9 29.6-51.3c.6-1 1.6-1.2 2.4-.7v-13.5z" fill="#DF0926"/><path d="M781.2 679.8c-.8-.6-2-.4-2.6.6l-32.4 53.5 3 .9 29.6-51.3c.6-1 1.6-1.2 2.4-.7v-3z" fill="#821721"/><path d="M781.9 673.8c-.4-.5-.8-.8-1.3-1.1v9.7c.5.1.9.4 1.2.9l37.3 52.5 13.1-12.5-50.3-49.5z" fill="#DF0926"/><path d="M781.4 680.4c-.2-.3-.5-.5-.9-.7v2.7c.5.1.9.4 1.2.9l37.3 52.5 4.3-6.2-41.9-49.2z" fill="#821721"/><path d="M878 758.5h-26.5v-35.2l26.5 9.3v25.9zM870.8 759.3H819v9.5h51.8v-9.5z" fill="#241511"/><path d="M878.6 786h-69.9c-5.2 0-9.3-4.2-9.3-9.3v-.2c0-5.2 4.2-9.3 9.3-9.3h69.9c5.2 0 9.3 4.2 9.3 9.3v.2c.1 5.2-4.1 9.3-9.3 9.3z" fill="#241511"/><path d="M874.5 782h-61.6c-4.4 0-6.8-2.4-6.8-5.4v-.1c0-3 2.4-5.4 6.8-5.4h61.6c4.4 0 6.8 2.4 6.8 5.4v.1c-.1 3-2.4 5.4-6.8 5.4z" fill="#4E413E"/><path d="M878 776.6c0 2.5-2 4.4-4.4 4.4-2.5 0-4.4-2-4.4-4.4 0-2.5 2-4.4 4.4-4.4 2.4 0 4.4 2 4.4 4.4zM819 776.6c0 2.5-2 4.4-4.4 4.4-2.5 0-4.4-2-4.4-4.4 0-2.5 2-4.4 4.4-4.4 2.4 0 4.4 2 4.4 4.4z" fill="#898180"/><path d="M866.8 775.6h-45.3v2.1h45.3v-2.1zM822.2 773.2c0 .7-.6 1.2-1.2 1.2-.7 0-1.2-.6-1.2-1.2 0-.7.6-1.2 1.2-1.2s1.2.5 1.2 1.2zM825.7 773.2c0 .7-.6 1.2-1.2 1.2s-1.2-.6-1.2-1.2c0-.7.6-1.2 1.2-1.2s1.2.5 1.2 1.2zM829.2 773.2c0 .7-.6 1.2-1.2 1.2-.7 0-1.2-.6-1.2-1.2 0-.7.6-1.2 1.2-1.2.7 0 1.2.5 1.2 1.2zM832.8 773.2c0 .7-.6 1.2-1.2 1.2-.7 0-1.2-.6-1.2-1.2 0-.7.6-1.2 1.2-1.2s1.2.5 1.2 1.2zM836.3 773.2c0 .7-.6 1.2-1.2 1.2s-1.2-.6-1.2-1.2c0-.7.6-1.2 1.2-1.2s1.2.5 1.2 1.2zM839.8 773.2c0 .7-.6 1.2-1.2 1.2-.7 0-1.2-.6-1.2-1.2 0-.7.6-1.2 1.2-1.2.7 0 1.2.5 1.2 1.2zM843.4 773.2c0 .7-.6 1.2-1.2 1.2s-1.2-.6-1.2-1.2c0-.7.6-1.2 1.2-1.2s1.2.5 1.2 1.2zM846.9 773.2c0 .7-.6 1.2-1.2 1.2-.7 0-1.2-.6-1.2-1.2 0-.7.6-1.2 1.2-1.2s1.2.5 1.2 1.2zM850.4 773.2c0 .7-.6 1.2-1.2 1.2-.7 0-1.2-.6-1.2-1.2 0-.7.6-1.2 1.2-1.2.7 0 1.2.5 1.2 1.2zM853.9 773.2c0 .7-.6 1.2-1.2 1.2s-1.2-.6-1.2-1.2c0-.7.6-1.2 1.2-1.2s1.2.5 1.2 1.2zM857.5 773.2c0 .7-.6 1.2-1.2 1.2-.7 0-1.2-.6-1.2-1.2 0-.7.6-1.2 1.2-1.2s1.2.5 1.2 1.2zM861 773.2c0 .7-.6 1.2-1.2 1.2s-1.2-.6-1.2-1.2c0-.7.6-1.2 1.2-1.2s1.2.5 1.2 1.2zM864.5 773.2c0 .7-.6 1.2-1.2 1.2-.7 0-1.2-.6-1.2-1.2 0-.7.6-1.2 1.2-1.2.7 0 1.2.5 1.2 1.2zM868.1 773.2c0 .7-.6 1.2-1.2 1.2s-1.2-.6-1.2-1.2c0-.7.6-1.2 1.2-1.2s1.2.5 1.2 1.2zM822.2 779.8c0 .7-.6 1.2-1.2 1.2-.7 0-1.2-.6-1.2-1.2s.6-1.2 1.2-1.2 1.2.5 1.2 1.2zM825.7 779.8c0 .7-.6 1.2-1.2 1.2s-1.2-.6-1.2-1.2.6-1.2 1.2-1.2 1.2.5 1.2 1.2zM829.2 779.8c0 .7-.6 1.2-1.2 1.2-.7 0-1.2-.6-1.2-1.2s.6-1.2 1.2-1.2c.7 0 1.2.5 1.2 1.2zM832.8 779.8c0 .7-.6 1.2-1.2 1.2-.7 0-1.2-.6-1.2-1.2s.6-1.2 1.2-1.2 1.2.5 1.2 1.2zM836.3 779.8c0 .7-.6 1.2-1.2 1.2s-1.2-.6-1.2-1.2.6-1.2 1.2-1.2 1.2.5 1.2 1.2zM839.8 779.8c0 .7-.6 1.2-1.2 1.2-.7 0-1.2-.6-1.2-1.2s.6-1.2 1.2-1.2c.7 0 1.2.5 1.2 1.2zM843.4 779.8c0 .7-.6 1.2-1.2 1.2s-1.2-.6-1.2-1.2.6-1.2 1.2-1.2 1.2.5 1.2 1.2zM846.9 779.8c0 .7-.6 1.2-1.2 1.2-.7 0-1.2-.6-1.2-1.2s.6-1.2 1.2-1.2 1.2.5 1.2 1.2zM850.4 779.8c0 .7-.6 1.2-1.2 1.2-.7 0-1.2-.6-1.2-1.2s.6-1.2 1.2-1.2c.7 0 1.2.5 1.2 1.2zM853.9 779.8c0 .7-.6 1.2-1.2 1.2s-1.2-.6-1.2-1.2.6-1.2 1.2-1.2 1.2.5 1.2 1.2zM857.5 779.8c0 .7-.6 1.2-1.2 1.2-.7 0-1.2-.6-1.2-1.2s.6-1.2 1.2-1.2 1.2.5 1.2 1.2zM861 779.8c0 .7-.6 1.2-1.2 1.2s-1.2-.6-1.2-1.2.6-1.2 1.2-1.2 1.2.5 1.2 1.2zM864.5 779.8c0 .7-.6 1.2-1.2 1.2-.7 0-1.2-.6-1.2-1.2s.6-1.2 1.2-1.2c.7 0 1.2.5 1.2 1.2zM868.1 779.8c0 .7-.6 1.2-1.2 1.2s-1.2-.6-1.2-1.2.6-1.2 1.2-1.2 1.2.5 1.2 1.2z" fill="#241511"/><path d="M835.6 732.6v8.7h-24v9.8h81.5v-11.9l-57.5-6.6z" fill="#821721"/><path d="M893.1 746.2h-83.3v18.5h83.3v-18.5z" fill="#DF0926"/><path d="M826.8 712.1h31.7v42.7h-48.7v-22.2l17-20.5z" fill="#DF0926"/><path d="M887.9 749.6h-21.1v2.8h21.1v-2.8zM887.9 754.1h-21.1v2.8h21.1v-2.8z" fill="#241511"/><path d="M887.9 758.6h-21.1v2.8h21.1v-2.8z" fill="#DF0926"/><path d="M829.1 715.3l-14 18.7v20.9l21.2-4v-35.6h-7.2zM853.9 715.3h-15.3v35.2l15.3-2.9v-32.3z" fill="#F4EBDE"/><path d="M852.4 752.2h-8.7v2.4h8.7v-2.4z" fill="#241511"/><path d="M750.3 739h-.2a17.1 17.1 0 00-14.2 23.8l4 9.2H767l-2.3-7.1-6.7-1.2-7.7-24.7z" fill="#DF0926"/><path d="M748.8 733.9c0 1.5-1.2 2.6-2.6 2.6-1.4 0-2.6-1.2-2.6-2.6 0-1.4 1.2-2.6 2.6-2.6 1.4 0 2.6 1.2 2.6 2.6zM782 677.9c0 1.4-1.2 2.6-2.6 2.6-1.4 0-2.6-1.2-2.6-2.6 0-1.4 1.2-2.6 2.6-2.6 1.4 0 2.6 1.2 2.6 2.6z" fill="#314277"/><path d="M367.7 758.5h-80.3v-28.6l80.3 5.9v22.7z" fill="#856471"/><path d="M367.7 749.5h-80.3v9h80.3v-9z" fill="#714B5A"/><path d="M367.7 738.5h-11.5v-2.7h-8.1v2.7h-60.7v2.4h60.7v6.3h8.1v-6.3h11.5v-2.4z" fill="#514441"/><path d="M388.5 709.1h-24l-9.9 21v28.4H405.2v-26.8l-16.7-22.6z" fill="#DF0926"/><path d="M405.2 737h-50.6v21.6h50.6V737z" fill="#821721"/><path d="M396.1 763.2c0 11.9-9.7 21.6-21.6 21.6-11.9 0-21.6-9.7-21.6-21.6 0-11.9 9.7-21.6 21.6-21.6 11.9 0 21.6 9.7 21.6 21.6z" fill="#241511"/><path d="M385.5 763.2c0 6.1-4.9 11-11 11s-11-4.9-11-11 4.9-11 11-11c6.1.1 11 5 11 11z" fill="#C1C3C4"/><path d="M314.5 763.2c0 11.9-9.7 21.6-21.6 21.6-11.9 0-21.6-9.7-21.6-21.6 0-11.9 9.7-21.6 21.6-21.6 11.9 0 21.6 9.7 21.6 21.6z" fill="#241511"/><path d="M303.9 763.2c0 6.1-4.9 11-11 11s-11-4.9-11-11 4.9-11 11-11c6 .1 11 5 11 11z" fill="#C1C3C4"/><path d="M379.4 763.2a4.9 4.9 0 11-4.9-4.9c2.7.1 4.9 2.2 4.9 4.9zM297.7 763.2a4.9 4.9 0 11-4.9-4.9c2.8.1 4.9 2.2 4.9 4.9z" fill="#555D5F"/><path d="M397.3 730.1h-20.9v-15h12.7l9.3 12.7c.7 1 .1 2.3-1.1 2.3z" fill="#F4EBDE"/><path d="M252.4 710l-6.1 10.3 72.2 25.1h22l23.5-41.2h42.3v-7.4h-48.6L339.4 710h-87z" fill="#DF0926"/><path d="M321.4 715.3l-10.2 21.6 7.6 2.6 12.1-24.2h-9.5zM263 715.3l-2.5 4.3 16.2 5.5 4.9-9.8H263zM288.5 715.3l-5.6 11.9 7.8 2.7 7.3-14.6h-9.5zM305 715.3l-8 16.8 7.7 2.6 9.7-19.4H305zM337.8 715.3l-11.7 24.4h11.7l13.3-24.4h-13.3z" fill="#821721"/><path d="M281.6 715.3l-4.9 9.8 6.2 2.1 5.6-11.9h-6.9zM298 715.3l-7.3 14.6 6.3 2.2 8-16.8h-7zM314.4 715.3l-9.7 19.4 6.5 2.2 10.2-21.6h-7zM330.9 715.3l-12.1 24.2.6.2h6.7l11.7-24.4h-6.9z" fill="#DF0926"/><path d="M384 733.5h-7.6v2.4h7.6v-2.4zM1113.2 725.3h-9.7v30h9.7v-30z" fill="#241511"/><path d="M1011.2 747.6h-26.7v7.7h26.7v-7.7zM1049.8 747.6h-26.7v7.7h26.7v-7.7zM1088.4 747.6h-26.7v7.7h26.7v-7.7z" fill="#314277"/><path d="M979.8 755.3h-9.7v12.1h9.7v-12.1z" fill="#241511"/><path d="M1161.7 769h-52.4v-55.8h35l17.4 21.3V769z" fill="#DF0926"/><path d="M1161.7 737.5h-52.4V769h52.4v-31.5z" fill="#821721"/><path d="M1164.6 752.8H974.8v18.1h189.8v-18.1z" fill="#8A6C78"/><path d="M1164.6 759.3H974.8v11.6h189.8v-11.6z" fill="#714B5A"/><path d="M1013.3 770.9a14.4 14.4 0 11-28.8 0 14.4 14.4 0 0128.8 0z" fill="#241511"/><path d="M1006.9 770.9c0 4.4-3.6 7.9-7.9 7.9-4.4 0-7.9-3.6-7.9-7.9 0-4.4 3.6-7.9 7.9-7.9 4.3 0 7.9 3.5 7.9 7.9z" fill="#B9B4B9"/><path d="M1002.5 770.9c0 2-1.6 3.5-3.5 3.5-2 0-3.5-1.6-3.5-3.5 0-2 1.6-3.5 3.5-3.5s3.5 1.6 3.5 3.5z" fill="#615561"/><path d="M1051.5 770.9a14.4 14.4 0 11-28.8 0 14.4 14.4 0 0128.8 0z" fill="#241511"/><path d="M1045.1 770.9c0 4.4-3.6 7.9-7.9 7.9-4.4 0-7.9-3.6-7.9-7.9 0-4.4 3.6-7.9 7.9-7.9 4.3 0 7.9 3.5 7.9 7.9z" fill="#B9B4B9"/><path d="M1040.7 770.9c0 2-1.6 3.5-3.5 3.5s-3.5-1.6-3.5-3.5c0-2 1.6-3.5 3.5-3.5s3.5 1.6 3.5 3.5z" fill="#615561"/><path d="M1140.2 770.9a14.4 14.4 0 11-28.8 0 14.4 14.4 0 0128.8 0z" fill="#241511"/><path d="M1133.7 770.9c0 4.4-3.6 7.9-7.9 7.9-4.4 0-7.9-3.6-7.9-7.9 0-4.4 3.6-7.9 7.9-7.9 4.3 0 7.9 3.5 7.9 7.9z" fill="#B9B4B9"/><path d="M1129.3 770.9c0 2-1.6 3.5-3.5 3.5-2 0-3.5-1.6-3.5-3.5 0-2 1.6-3.5 3.5-3.5s3.5 1.6 3.5 3.5z" fill="#615561"/><path d="M1085.6 707.2c1.2-.3 2.6-.7 4.2-.9 1.4-.2 2.8-.2 4.2-.2v-1.9c-5.1.1-10.2.3-15.2.8-2.2.2-4.4.5-6.6.7-5.1.6-10.4 1.3-15.7 1.3-1.9 0-3.7-.1-5.6-.3-2.4-.2-4.6-.7-6.8-1.1-2.2-.4-4.4-.8-6.8-1-5.8-.6-11.5 0-17.7.6-3.2.3-6.4.7-9.7.8-2.2.1-7.6.2-9.8-1.2-.3-.2-.5-.4-.7-.5-.3-.3-.6-.5-1.2-.7-.6-.2-1.6-.3-2.4-.3-3.7-.1-7.6.1-10.9.8-1 .2-2.1.5-3.1.7-3 .7-6.1 1.5-9.8 1.3-2-.1-3.8-.5-5.5-.9-.6-.1-1.2-.3-1.9-.4-4.4-.9-9.5-1-14.3-.9v2.4c.9.1 1.8.3 2.6.4l3.5.7c.9.2 1.8.4 2.6.6h22.5c.5-.3 1.2-.7 1.9-.9.4-.2.9-.4 1.5-.5.6-.1 1.2-.2 1.6-.2 2.8-.2 5.8 0 8.2.5 1.4.3 2.5.7 3.5 1.2h23.8l1.2-.5c.7-.3 1.6-.7 2.7-.9 1.3-.2 2.7-.3 3.9-.3 2.7 0 5.5-.1 8.3.1 2.2.1 5.3.5 7.5 1.5.2.1.3.2.5.2h36.6c1-.5 2-.7 2.9-1zM1009.5 701.6c2.6.5 6.3.7 8.8-.1 1.1-.3 1.9-.8 2.5-1.3h-16.2c1.5.5 3.1 1 4.9 1.4z" fill="#DB9648"/><path d="M965.5 704.4c.6.1 1.3.3 1.9.4 1.6.4 3.2.7 5 .8 3.1.2 5.9-.5 8.8-1.2a55.02 55.02 0 0114.9-1.6c1 0 2.2.1 3.1.4.8.2 1.2.6 1.5.9.2.2.4.3.6.5 1.8 1.1 6.5 1 8.5 1 3.2-.2 6.4-.5 9.5-.8 6-.6 12.2-1.2 18.4-.7 2.5.2 4.8.7 7 1.1 2.1.4 4.3.8 6.5 1 6.7.7 13.7-.2 20.5-1 2.2-.3 4.4-.5 6.6-.8 5.1-.5 10.3-.7 15.5-.8v-1.2c-.5.1-1 .2-1.5.2-.7.1-1.4.1-2 .1-1.1 0-2.1-.1-2.9-.3-1-.2-1.8-.6-2.4-.9-1-.5-1.9-1-2.9-1.5h-13.9c.6.2 1.3.3 2 .4.3.1.5.1.8.1 1 .2 2 .3 2.9.7 1.2.4 1.6 1.2.4 1.7-.6.2-1.3.3-2 .4-3.9.4-7.6.8-11.4.8-2 0-3.8-.1-5.5-.3-1.6-.2-3.1-.5-4.5-.9l-13.3-2.9h-15.3c-.7.6-1.7 1.3-3.2 1.7-1.5.4-3.3.6-5.1.6a26.99 26.99 0 01-11.2-2.4h-17.7c-.8.9-2 1.7-3.6 2.4-.6.3-1.4.6-2.5.7h-.9c-.7 0-1.4-.1-2.1-.1-1.3-.1-2.7-.3-3.9-.6-1.4-.3-2.4-.8-3.4-1.3-.8-.4-1.5-.7-2.2-1.1h-16v3.3c5 .2 10.3.3 15 1.2z" fill="#DB9648"/><path d="M972.9 702.2c1.1.3 2.3.4 3.6.6.8.1 1.6.2 2.2.1.7-.1 1.3-.3 1.8-.5 1.4-.6 2.5-1.4 3.2-2.1h-15.5c.5.3 1.1.5 1.6.8 1 .4 1.9.8 3.1 1.1zM1088.2 702.1c1 .2 2.5.3 3.9.1.7-.1 1.3-.2 1.9-.3v-1.8h-10.1c.8.4 1.5.8 2.3 1.2.6.3 1.2.6 2 .8zM1055.9 703.5c1.5.2 3.2.3 5.1.3 3.6 0 7.2-.4 11-.8.5-.1 1.1-.1 1.4-.2.6-.2.3-.7-.4-1-.6-.2-1.5-.4-2.5-.6-.3 0-.6-.1-.8-.1-1.3-.2-2.6-.6-3.8-.9h-25.6l11.3 2.5c1.4.3 2.8.6 4.3.8zM1090.2 706.8c-1.4.2-2.6.5-3.8.8-.5.1-1 .3-1.5.5h9.1v-1.4c-1.3-.1-2.6 0-3.8.1zM1038.1 706.9c-2.6-.2-5.3-.1-8-.1-1.1 0-2.4 0-3.4.2-.9.2-1.6.5-2.3.8l-.5.2h20.6c-1.9-.7-4.5-1-6.4-1.1zM952.4 707.2c-.6-.1-1.2-.2-1.9-.3v1.2h6.2c-.2-.1-.5-.1-.7-.2l-3.6-.7zM994.2 707.3c-2.2-.5-4.8-.6-7.3-.4-.5 0-.9.1-1.2.2-.4.1-.8.2-1.2.4-.5.2-.9.4-1.3.6h13.3c-.6-.3-1.4-.6-2.3-.8z" fill="#DB9648"/><path d="M964.8 704.9c.6.1 1.2.3 1.9.4 1.7.4 3.4.8 5.5.9 3.6.2 6.8-.6 9.8-1.3 1-.3 2.1-.5 3.1-.7 3.3-.7 7.2-1 10.9-.8.8 0 1.8.1 2.4.3.5.2.8.4 1.2.7.2.2.4.4.7.5 2.2 1.4 7.6 1.3 9.8 1.2 3.3-.2 6.5-.5 9.7-.8 6.1-.6 11.9-1.2 17.7-.6 2.3.2 4.6.6 6.8 1s4.4.8 6.8 1.1c1.9.2 3.7.3 5.6.3 5.3 0 10.5-.6 15.7-1.3 2.2-.3 4.4-.5 6.6-.7 5-.5 10-.7 15.2-.8v-.5c-5.2.1-10.4.3-15.5.8-2.2.2-4.5.5-6.6.8-6.8.8-13.8 1.7-20.5 1-2.3-.2-4.4-.6-6.5-1-2.2-.4-4.5-.8-7-1.1-6.1-.6-12.3 0-18.4.7-3.1.3-6.3.6-9.5.8-1.9.1-6.7.2-8.5-.9-.2-.1-.4-.3-.6-.5-.4-.3-.7-.7-1.5-.9-.9-.3-2.1-.4-3.1-.4-4-.2-8.2.2-11.7.9-1.1.2-2.2.5-3.2.7-2.9.7-5.7 1.4-8.8 1.2-1.8-.1-3.3-.4-5-.8-.6-.1-1.3-.3-1.9-.4-4.6-.9-9.9-1.1-14.9-1v.5c4.4-.3 9.5-.2 13.8.7z" fill="#C0753B"/><path d="M1055.5 704c1.7.2 3.5.3 5.5.3 3.7 0 7.5-.4 11.4-.8.6-.1 1.4-.2 2-.4 1.2-.5.8-1.3-.4-1.7-.8-.3-1.9-.5-2.9-.7-.3 0-.5-.1-.8-.1-.7-.1-1.3-.3-2-.4h-2.4c1.2.3 2.4.6 3.8.9.3 0 .6.1.8.1.9.2 1.8.3 2.5.6s1 .8.4 1c-.3.1-.9.2-1.4.2-3.8.4-7.4.8-11 .8-1.9 0-3.5-.1-5.1-.3-1.5-.2-2.9-.5-4.3-.8l-11.3-2.5h-2.7l13.3 2.9c1.5.3 2.9.6 4.6.9zM1008.8 702c1.5.3 3.4.5 5.2.5 1.8 0 3.6-.2 5.1-.6 1.5-.5 2.5-1.1 3.2-1.7h-1.5c-.6.5-1.4 1-2.5 1.3-2.5.7-6.3.6-8.8.1-1.8-.3-3.4-.9-4.8-1.4h-1.9c1.7.7 3.7 1.4 6 1.8zM972.2 702.6c1.2.3 2.6.5 3.9.6.7.1 1.4.1 2.1.1h.9c1.1-.1 1.9-.4 2.5-.7 1.6-.7 2.8-1.6 3.6-2.4h-1.4c-.8.8-1.9 1.5-3.2 2.1-.5.2-1.1.5-1.8.5-.7.1-1.4 0-2.2-.1-1.3-.1-2.5-.3-3.6-.6-1.2-.3-2.1-.7-3.1-1.2-.5-.3-1.1-.5-1.6-.8h-1.7c.7.4 1.5.7 2.2 1.1 1 .6 2 1.1 3.4 1.4zM953.1 706.8c-.8-.2-1.6-.3-2.6-.4v.5c.7.1 1.3.2 1.9.3l3.5.7c.2 0 .5.1.7.2h2.5c-.8-.2-1.7-.4-2.6-.6l-3.4-.7zM994.9 706.9c-2.5-.5-5.5-.7-8.2-.5a8.75 8.75 0 00-3.1.7c-.7.3-1.3.6-1.9.9h1.6c.4-.2.8-.4 1.3-.6.3-.1.7-.3 1.2-.4.3-.1.7-.1 1.2-.2 2.5-.2 5.1 0 7.3.4.9.2 1.7.4 2.4.7h1.8c-1-.3-2.2-.7-3.6-1zM1038.3 706.4c-2.8-.2-5.6-.1-8.3-.1-1.3 0-2.7 0-3.9.3-1.2.2-2 .6-2.7.9l-1.2.5h1.8l.5-.2c.7-.3 1.4-.6 2.3-.8 1-.2 2.2-.2 3.4-.2 2.6 0 5.4-.1 8 .1 1.9.1 4.5.4 6.4 1.2h1.8c-.2-.1-.3-.2-.5-.2-2.3-1-5.4-1.4-7.6-1.5zM1090.2 706.8c1.2-.1 2.5-.2 3.8-.2v-.5c-1.4 0-2.8 0-4.2.2-1.6.2-2.9.5-4.2.9-.9.3-1.8.5-2.6.9h1.9c.5-.2 1-.3 1.5-.5 1.1-.3 2.4-.6 3.8-.8zM1087.5 702.6c.8.2 1.9.3 2.9.3.7 0 1.4 0 2-.1.5-.1 1-.1 1.5-.2v-.6c-.6.1-1.2.2-1.9.3-1.4.2-2.8.1-3.9-.1-.8-.2-1.5-.5-2-.8-.8-.4-1.5-.8-2.3-1.2h-1.7c1 .5 1.9 1 2.9 1.5.7.2 1.5.6 2.5.9z" fill="#C0753B"/><path d="M1095.9 723c1.2-.3 2.6-.7 4.2-.9 1.4-.2 2.8-.2 4.2-.2V720c-5.1.1-10.2.3-15.2.8-2.2.2-4.4.5-6.6.7-5.1.6-10.4 1.3-15.7 1.3-1.9 0-3.7-.1-5.6-.3-2.4-.2-4.6-.7-6.8-1.1-2.2-.4-4.4-.8-6.8-1-5.8-.6-11.5 0-17.7.6-3.2.3-6.4.7-9.7.8-2.2.1-7.6.2-9.8-1.2-.3-.2-.5-.4-.7-.5-.3-.3-.6-.5-1.2-.7-.6-.2-1.6-.3-2.4-.3-3.7-.1-7.6.1-10.9.8-1 .2-2.1.5-3.1.7-3 .7-6.1 1.5-9.8 1.3-2-.1-3.8-.5-5.5-.9-.6-.1-1.2-.3-1.9-.4-4.4-.9-9.5-1-14.3-.9v2.4c.9.1 1.8.3 2.6.4l3.5.7c.9.2 1.8.4 2.6.6H992c.5-.3 1.2-.7 1.9-.9.4-.2.9-.4 1.5-.5.6-.1 1.2-.2 1.6-.2 2.8-.2 5.8 0 8.2.5 1.4.3 2.5.7 3.5 1.2h23.8l1.2-.5c.7-.3 1.6-.7 2.7-.9 1.3-.2 2.7-.3 3.9-.3 2.7 0 5.5-.1 8.3.1 2.2.1 5.3.5 7.5 1.5.2.1.3.2.5.2h36.6c.8-.5 1.8-.8 2.7-1zM1019.8 717.4c2.6.5 6.3.7 8.8-.1 1.1-.3 1.9-.8 2.5-1.3H1015c1.4.5 3 1 4.8 1.4z" fill="#DB9648"/><path d="M975.8 720.2c.6.1 1.3.3 1.9.4 1.6.4 3.2.7 5 .8 3.1.2 5.9-.5 8.8-1.2a55.02 55.02 0 0114.9-1.6c1 0 2.2.1 3.1.4.8.2 1.2.6 1.5.9.2.2.4.3.6.5 1.8 1.1 6.5 1 8.5 1 3.2-.2 6.4-.5 9.5-.8 6-.6 12.2-1.2 18.4-.7 2.5.2 4.8.7 7 1.1 2.1.4 4.3.8 6.5 1 6.7.7 13.7-.2 20.5-1 2.2-.3 4.4-.5 6.6-.8 5.1-.5 10.3-.7 15.5-.8v-1.2c-.5.1-1 .2-1.5.2-.7.1-1.4.1-2 .1-1.1 0-2.1-.1-2.9-.3-1-.2-1.8-.6-2.4-.9-1-.5-1.9-1-2.9-1.5h-13.9c.6.2 1.3.3 2 .4.3.1.5.1.8.1 1 .2 2 .3 2.9.7 1.2.4 1.6 1.2.4 1.7-.6.2-1.3.3-2 .4-3.9.4-7.6.8-11.4.8-2 0-3.8-.1-5.5-.3-1.6-.2-3.1-.5-4.5-.9l-13.3-2.9h-15.3c-.7.6-1.7 1.3-3.2 1.7-1.5.4-3.3.6-5.1.6a26.99 26.99 0 01-11.2-2.4h-17.7c-.8.9-2 1.7-3.6 2.4-.6.3-1.4.6-2.5.7h-.9c-.7 0-1.4-.1-2.1-.1-1.3-.1-2.7-.3-3.9-.6-1.4-.3-2.4-.8-3.4-1.3-.8-.4-1.5-.7-2.2-1.1h-16v3.3c5 .2 10.3.3 15 1.2z" fill="#DB9648"/><path d="M983.2 718c1.1.3 2.3.4 3.6.6.8.1 1.6.2 2.2.1.7-.1 1.3-.3 1.8-.5 1.4-.6 2.5-1.4 3.2-2.1h-15.5c.5.3 1.1.5 1.6.8 1 .3 1.9.8 3.1 1.1zM1098.5 717.9c1 .2 2.4.3 3.9.1.7-.1 1.3-.2 1.9-.3V716h-10.1c.8.4 1.5.8 2.3 1.2.6.2 1.2.5 2 .7zM1066.2 719.3c1.5.2 3.2.3 5.1.3 3.6 0 7.2-.4 11-.8.5-.1 1.1-.1 1.4-.2.6-.2.3-.7-.4-1-.6-.2-1.5-.4-2.5-.6-.3 0-.6-.1-.8-.1-1.3-.2-2.6-.6-3.8-.9h-25.6l11.3 2.5c1.4.2 2.8.6 4.3.8zM1100.5 722.6c-1.4.2-2.6.5-3.8.8-.5.1-1 .3-1.5.5h9.1v-1.4c-1.3-.1-2.6-.1-3.8.1zM1048.4 722.7c-2.6-.2-5.3-.1-8-.1-1.1 0-2.4 0-3.4.2-.9.2-1.6.5-2.3.8l-.5.2h20.6c-1.9-.7-4.5-1-6.4-1.1zM962.7 723c-.6-.1-1.2-.2-1.9-.3v1.2h6.2c-.2-.1-.5-.1-.7-.2l-3.6-.7zM1004.5 723.1c-2.2-.5-4.8-.6-7.3-.4-.5 0-.9.1-1.2.2-.4.1-.8.2-1.2.4-.5.2-.9.4-1.3.6h13.3c-.6-.3-1.4-.6-2.3-.8z" fill="#DB9648"/><path d="M975.1 720.7c.6.1 1.2.3 1.9.4 1.7.4 3.4.8 5.5.9 3.6.2 6.8-.6 9.8-1.3 1-.3 2.1-.5 3.1-.7 3.3-.7 7.2-1 10.9-.8.8 0 1.8.1 2.4.3.5.2.8.4 1.2.7.2.2.4.4.7.5 2.2 1.4 7.6 1.3 9.8 1.2 3.3-.2 6.5-.5 9.7-.8 6.1-.6 11.9-1.2 17.7-.6 2.3.2 4.6.6 6.8 1s4.4.8 6.8 1.1c1.9.2 3.7.3 5.6.3 5.3 0 10.5-.6 15.7-1.3 2.2-.3 4.4-.5 6.6-.7 5-.5 10-.7 15.2-.8v-.5c-5.2.1-10.4.3-15.5.8-2.2.2-4.5.5-6.7.8-6.8.8-13.8 1.7-20.5 1-2.3-.2-4.4-.6-6.5-1-2.2-.4-4.5-.8-7-1.1-6.1-.6-12.3 0-18.4.7-3.1.3-6.3.6-9.5.8-1.9.1-6.7.2-8.5-1-.2-.1-.4-.3-.6-.5-.4-.3-.7-.7-1.5-.9-.9-.3-2.1-.4-3.1-.4-4-.2-8.2.2-11.7.9-1.1.2-2.2.5-3.2.7-2.9.7-5.7 1.4-8.8 1.2-1.8-.1-3.3-.4-5-.8-.6-.1-1.3-.3-1.9-.4-4.6-.9-9.9-1.1-14.9-1v.5c4.5-.2 9.6-.1 13.9.8z" fill="#C0753B"/><path d="M1065.7 719.7c1.7.2 3.5.3 5.5.3 3.7 0 7.5-.4 11.4-.8.6-.1 1.4-.2 2-.4 1.2-.5.8-1.3-.4-1.7-.8-.3-1.9-.5-2.9-.7-.3 0-.5-.1-.8-.1-.7-.1-1.3-.3-2-.4h-2.4c1.2.3 2.4.6 3.8.9.3 0 .6.1.8.1.9.2 1.8.3 2.5.6s1 .8.4 1c-.3.1-.9.2-1.4.2-3.8.4-7.4.8-11 .8-1.9 0-3.5-.1-5.1-.3-1.5-.2-2.9-.5-4.3-.8l-11.3-2.5h-2.7l13.3 2.9c1.5.4 3 .7 4.6.9zM1019.1 717.8c1.5.3 3.4.5 5.2.5 1.8 0 3.6-.2 5.1-.6 1.5-.5 2.5-1.1 3.2-1.7h-1.5c-.6.5-1.4 1-2.5 1.3-2.5.7-6.3.6-8.8.1-1.8-.3-3.4-.9-4.8-1.4h-1.9c1.7.7 3.7 1.4 6 1.8zM982.5 718.4c1.2.3 2.6.5 3.9.6.7.1 1.4.1 2.1.1h.9c1.1-.1 1.9-.4 2.5-.7 1.6-.7 2.8-1.6 3.6-2.4H994c-.8.8-1.9 1.5-3.2 2.1-.5.2-1.1.5-1.8.5-.7.1-1.4 0-2.2-.1-1.3-.1-2.5-.3-3.6-.6-1.2-.3-2.1-.7-3.1-1.2-.5-.3-1.1-.5-1.6-.8h-1.7c.7.4 1.5.7 2.2 1.1 1.1.6 2.1 1 3.5 1.4zM963.4 722.5c-.8-.2-1.6-.3-2.6-.4v.5c.7.1 1.3.2 1.9.3l3.5.7c.2 0 .5.1.7.2h2.5c-.8-.2-1.7-.4-2.6-.6l-3.4-.7zM1005.2 722.7c-2.5-.5-5.5-.7-8.2-.5a8.75 8.75 0 00-3.1.7c-.7.3-1.3.6-1.9.9h1.6c.4-.2.8-.4 1.3-.6.3-.1.7-.3 1.2-.4.3-.1.7-.1 1.2-.2 2.5-.2 5.1 0 7.3.4.9.2 1.7.4 2.4.7h1.8c-1.1-.3-2.2-.7-3.6-1zM1048.6 722.2c-2.8-.2-5.6-.1-8.3-.1-1.3 0-2.7 0-3.9.3-1.2.2-2 .6-2.7.9l-1.2.5h1.8l.5-.2c.7-.3 1.4-.6 2.3-.8 1-.2 2.2-.2 3.4-.2 2.6 0 5.4-.1 8 .1 1.9.1 4.5.4 6.4 1.2h1.8c-.2-.1-.3-.2-.5-.2-2.3-1-5.4-1.4-7.6-1.5zM1100.5 722.6c1.2-.1 2.5-.2 3.8-.2v-.5c-1.4 0-2.8 0-4.2.2-1.6.2-2.9.5-4.2.9-.9.3-1.8.5-2.6.9h1.9c.5-.2 1-.3 1.5-.5 1.1-.3 2.4-.7 3.8-.8zM1097.8 718.3c.8.2 1.9.3 2.9.3.7 0 1.4 0 2-.1.5-.1 1-.1 1.5-.2v-.6c-.6.1-1.2.2-1.9.3-1.4.2-2.8.1-3.9-.1-.8-.2-1.5-.5-2-.8-.8-.4-1.5-.8-2.3-1.2h-1.7c1 .5 1.9 1 2.9 1.5.7.3 1.5.7 2.5.9z" fill="#C0753B"/><path d="M963.1 740.5c-1.2.3-2.6.7-4.2.9-1.4.2-2.8.2-4.2.2v1.9c5.1-.1 10.2-.3 15.2-.8 2.2-.2 4.4-.5 6.6-.7 5.1-.6 10.4-1.3 15.7-1.3 1.9 0 3.7.1 5.6.3 2.4.2 4.6.7 6.8 1.1 2.2.4 4.4.8 6.8 1 5.8.6 11.5 0 17.7-.7 3.2-.3 6.4-.7 9.7-.8 2.2-.1 7.6-.2 9.8 1.2.3.2.5.4.7.5.3.3.6.5 1.2.7.6.2 1.6.3 2.4.3 3.7.1 7.6-.1 10.9-.8 1-.2 2.1-.5 3.1-.7 3-.7 6.1-1.5 9.8-1.3 2 .1 3.8.5 5.5.9.6.1 1.2.3 1.9.4 4.4.9 9.5 1 14.3.9v-2.4c-.9-.1-1.8-.3-2.6-.4l-3.5-.7c-.9-.2-1.8-.4-2.6-.6h-22.5c-.5.3-1.2.7-1.9 1-.4.2-.9.4-1.5.5-.6.1-1.2.2-1.6.2-2.8.2-5.8 0-8.2-.5-1.4-.3-2.5-.7-3.5-1.2h-23.8l-1.2.5c-.7.3-1.6.7-2.7.9-1.3.2-2.7.3-3.9.3-2.7 0-5.5.1-8.3-.1-2.2-.1-5.3-.5-7.5-1.5-.2-.1-.3-.2-.5-.2H966c-1 .5-2 .7-2.9 1zM1039.2 746.1c-2.6-.5-6.3-.7-8.8.1-1.1.3-1.9.8-2.6 1.3h16.2c-1.4-.5-3-1-4.8-1.4z" fill="#DB9648"/><path d="M1083.2 743.3c-.6-.1-1.3-.3-1.9-.4-1.6-.4-3.2-.7-5-.8-3.1-.2-5.9.5-8.8 1.2a55.02 55.02 0 01-14.9 1.6c-1 0-2.2-.1-3.1-.4-.8-.2-1.2-.6-1.5-.9-.2-.2-.4-.3-.6-.5-1.8-1.1-6.5-1-8.5-1-3.2.2-6.4.5-9.5.8-6 .6-12.2 1.2-18.4.7-2.5-.2-4.8-.7-7-1.1-2.1-.4-4.3-.8-6.5-1-6.7-.7-13.7.2-20.5 1-2.2.3-4.4.5-6.6.8-5.1.5-10.3.7-15.5.8v1.2c.5-.1 1-.2 1.5-.2.7-.1 1.4-.1 2-.1 1.1 0 2.1.1 2.9.3 1 .2 1.8.6 2.4.9 1 .5 1.9 1 2.9 1.5h13.9c-.6-.2-1.3-.3-2-.4-.3 0-.5-.1-.8-.1-1-.2-2-.4-2.9-.7-1.2-.4-1.6-1.2-.4-1.7.6-.2 1.3-.3 2-.4 3.9-.4 7.6-.8 11.4-.8 2 0 3.8.1 5.5.3 1.6.2 3.1.5 4.5.9l13.3 2.9h15.3c.7-.6 1.7-1.3 3.2-1.7 1.5-.4 3.3-.6 5.1-.6a26.99 26.99 0 0111.2 2.4h17.7c.8-.9 2-1.7 3.6-2.4.6-.3 1.4-.6 2.5-.7h.9c.7 0 1.4.1 2.1.1 1.3.2 2.7.3 3.9.6 1.4.3 2.4.8 3.4 1.3.8.4 1.5.7 2.2 1.1h16v-3.3c-5-.2-10.3-.3-15-1.2z" fill="#DB9648"/><path d="M1075.8 745.5c-1.1-.3-2.3-.4-3.6-.6-.8-.1-1.6-.2-2.2-.1-.7.1-1.3.3-1.8.5-1.4.6-2.5 1.4-3.2 2.1h15.5c-.5-.3-1.1-.5-1.6-.8-1-.4-1.9-.8-3.1-1.1zM960.5 745.6c-1-.2-2.5-.3-3.9-.1-.7.1-1.3.2-1.9.3v1.8h10.1c-.8-.4-1.5-.8-2.3-1.2-.6-.3-1.2-.7-2-.8zM992.8 744.2c-1.5-.2-3.2-.3-5.1-.3-3.6 0-7.2.4-11 .8-.5.1-1.1.1-1.4.2-.6.2-.3.7.4 1 .6.2 1.5.4 2.5.6.3 0 .6.1.8.1 1.3.2 2.6.6 3.8.9h25.6l-11.3-2.5c-1.4-.3-2.8-.6-4.3-.8zM958.5 740.9c1.4-.2 2.6-.5 3.8-.8.5-.1 1-.3 1.5-.5h-9.1v1.4c1.3.1 2.6 0 3.8-.1zM1010.6 740.8c2.6.2 5.3.1 8 .1 1.1 0 2.4 0 3.4-.2.9-.2 1.6-.5 2.3-.8l.5-.2h-20.6c1.9.7 4.5 1 6.4 1.1zM1096.3 740.5c.6.1 1.2.2 1.9.3v-1.2h-6.2c.2.1.5.1.7.2l3.6.7zM1054.5 740.4c2.2.5 4.8.6 7.3.4.5 0 .9-.1 1.2-.2.4-.1.8-.2 1.2-.4.5-.2.9-.4 1.3-.6h-13.3c.6.3 1.4.6 2.3.8z" fill="#DB9648"/><path d="M1083.9 742.8c-.6-.1-1.2-.3-1.9-.4-1.7-.4-3.4-.8-5.5-.9-3.6-.2-6.8.6-9.8 1.3-1 .3-2.1.5-3.1.7-3.3.7-7.2 1-10.9.8-.8 0-1.8-.1-2.4-.3-.5-.2-.8-.4-1.2-.7-.2-.2-.4-.4-.7-.5-2.2-1.4-7.6-1.3-9.8-1.2-3.3.2-6.5.5-9.7.8-6.1.6-11.9 1.2-17.7.7-2.3-.2-4.6-.6-6.8-1.1-2.2-.4-4.4-.8-6.8-1.1-1.9-.2-3.7-.3-5.6-.3-5.3 0-10.5.6-15.7 1.3-2.2.3-4.4.5-6.6.7-5 .5-10 .7-15.2.8v.5c5.2-.1 10.4-.3 15.5-.8 2.2-.2 4.5-.5 6.6-.8 6.8-.8 13.8-1.7 20.5-1 2.3.2 4.4.6 6.5 1 2.2.4 4.5.8 7 1.1 6.1.6 12.3 0 18.4-.7 3.1-.3 6.3-.6 9.5-.8 1.9-.1 6.7-.2 8.5 1 .2.1.4.3.6.5.4.3.7.7 1.5.9.9.3 2.1.4 3.1.4 4 .2 8.2-.2 11.7-.9 1.1-.2 2.2-.5 3.2-.7 2.9-.7 5.7-1.4 8.8-1.2 1.8.1 3.3.4 5 .8.6.1 1.3.3 1.9.4 4.6.9 9.9 1.1 14.9 1v-.5c-4.3.2-9.5.1-13.8-.8z" fill="#C0753B"/><path d="M993.3 743.7c-1.7-.2-3.5-.3-5.5-.3-3.7 0-7.5.4-11.4.8-.6.1-1.4.2-2 .4-1.2.5-.8 1.3.4 1.7.8.3 1.9.5 2.9.7.3 0 .5.1.8.1.7.1 1.3.3 2 .4h2.4c-1.2-.3-2.4-.6-3.8-.9-.3 0-.6-.1-.8-.1-.9-.2-1.8-.3-2.5-.6s-1-.8-.4-1c.3-.1.9-.2 1.4-.2 3.8-.4 7.4-.8 11-.8 1.9 0 3.5.1 5.1.3 1.5.2 2.9.5 4.3.8l11.3 2.5h2.7l-13.3-2.9c-1.5-.3-3-.6-4.6-.9zM1039.9 745.7c-1.5-.3-3.4-.5-5.2-.5-1.8 0-3.6.2-5.1.6-1.5.5-2.5 1.1-3.2 1.7h1.5c.6-.5 1.4-1 2.6-1.3 2.5-.7 6.3-.6 8.8-.1 1.8.3 3.4.9 4.8 1.4h1.9c-1.8-.7-3.8-1.4-6.1-1.8zM1076.5 745.1c-1.2-.3-2.6-.5-3.9-.6-.7-.1-1.4-.1-2.1-.1h-.9c-1.1.1-1.9.4-2.5.7-1.6.7-2.8 1.6-3.6 2.4h1.4c.8-.8 1.9-1.5 3.2-2.1.5-.2 1.1-.5 1.8-.5.7-.1 1.4 0 2.2.1 1.3.1 2.5.3 3.6.6 1.2.3 2.1.7 3.1 1.2.5.3 1.1.5 1.6.8h1.7c-.7-.4-1.5-.7-2.2-1.1-1-.6-2-1.1-3.4-1.4zM1095.6 740.9c.8.2 1.6.3 2.6.4v-.5c-.7-.1-1.3-.2-1.9-.3l-3.5-.7c-.2 0-.5-.1-.7-.2h-2.5c.8.2 1.7.4 2.6.6l3.4.7zM1053.8 740.8c2.5.5 5.5.7 8.2.5a8.75 8.75 0 003.1-.7c.7-.3 1.3-.6 1.9-.9h-1.6c-.4.2-.8.4-1.3.6-.3.1-.7.3-1.2.4-.3.1-.7.1-1.2.2-2.5.2-5.1 0-7.3-.4-.9-.2-1.7-.4-2.4-.7h-1.8c1.1.3 2.2.7 3.6 1zM1010.4 741.3c2.8.2 5.6.1 8.3.1 1.3 0 2.7 0 3.9-.3 1.2-.2 2-.6 2.7-.9l1.2-.5h-1.8l-.5.2c-.7.3-1.4.6-2.3.8-1 .2-2.2.2-3.4.2-2.6 0-5.4.1-8-.1-1.9-.1-4.5-.4-6.4-1.2h-1.8c.2.1.3.2.5.2 2.3 1 5.4 1.4 7.6 1.5zM958.5 740.9c-1.2.1-2.5.2-3.8.2v.5c1.4 0 2.8 0 4.2-.2 1.6-.2 2.9-.5 4.2-.9.9-.3 1.8-.5 2.6-.9h-1.9c-.5.2-1 .3-1.5.5-1.1.3-2.4.6-3.8.8zM961.2 745.1c-.8-.2-1.9-.3-2.9-.3-.7 0-1.4 0-2 .1-.5.1-1 .1-1.5.2v.6c.6-.1 1.2-.2 1.9-.3 1.4-.2 2.8-.1 3.9.1.8.2 1.5.5 2 .8.8.4 1.5.8 2.3 1.2h1.7c-1-.5-1.9-1-2.9-1.5-.7-.3-1.5-.6-2.5-.9z" fill="#C0753B"/><path opacity=".35" d="M1089.6 739.6H954.7v7.9h143.5v-7.9h-8.6z" fill="#9D753B"/><path d="M963.1 724.7c-1.2.3-2.6.7-4.2.9-1.4.2-2.8.2-4.2.2v1.9c5.1-.1 10.2-.3 15.2-.8 2.2-.2 4.4-.5 6.6-.7 5.1-.6 10.4-1.3 15.7-1.3 1.9 0 3.7.1 5.6.3 2.4.2 4.6.7 6.8 1.1 2.2.4 4.4.8 6.8 1 5.8.6 11.5 0 17.7-.6 3.2-.3 6.4-.7 9.7-.8 2.2-.1 7.6-.2 9.8 1.2.3.2.5.4.7.5.3.3.6.5 1.2.7.6.2 1.6.3 2.4.3 3.7.1 7.6-.1 10.9-.8 1-.2 2.1-.5 3.1-.7 3-.7 6.1-1.5 9.8-1.3 2 .1 3.8.5 5.5.9.6.1 1.2.3 1.9.4 4.4.9 9.5 1 14.3.9v-2.4c-.9-.1-1.8-.3-2.6-.4l-3.5-.7c-.9-.2-1.8-.4-2.6-.6h-22.5c-.5.3-1.2.7-1.9.9-.4.2-.9.4-1.5.5-.6.1-1.2.2-1.6.2-2.8.2-5.8 0-8.2-.5-1.4-.3-2.5-.7-3.5-1.2h-23.8l-1.2.5c-.7.3-1.6.7-2.7.9-1.3.2-2.7.3-3.9.3-2.7 0-5.5.1-8.3-.1-2.2-.1-5.3-.5-7.5-1.5-.2-.1-.3-.2-.5-.2H966c-1 .5-2 .8-2.9 1zM1039.2 730.3c-2.6-.5-6.3-.7-8.8.1-1.1.3-1.9.8-2.6 1.3h16.2c-1.4-.5-3-1-4.8-1.4z" fill="#DB9648"/><path d="M1083.2 727.5c-.6-.1-1.3-.3-1.9-.4-1.6-.4-3.2-.7-5-.8-3.1-.2-5.9.5-8.8 1.2a55.02 55.02 0 01-14.9 1.6c-1 0-2.2-.1-3.1-.4-.8-.2-1.2-.6-1.5-.9-.2-.2-.4-.3-.6-.5-1.8-1.1-6.5-1-8.5-1-3.2.2-6.4.5-9.5.8-6 .6-12.2 1.2-18.4.7-2.5-.2-4.8-.7-7-1.1-2.1-.4-4.3-.8-6.5-1-6.7-.7-13.7.2-20.5 1-2.2.3-4.4.5-6.6.8-5.1.5-10.3.7-15.5.8v1.2c.5-.1 1-.2 1.5-.2.7-.1 1.4-.1 2-.1 1.1 0 2.1.1 2.9.3 1 .2 1.8.6 2.4.9 1 .5 1.9 1 2.9 1.5h13.9c-.6-.2-1.3-.3-2-.4-.3 0-.5-.1-.8-.1-1-.2-2-.4-2.9-.7-1.2-.4-1.6-1.2-.4-1.7.6-.2 1.3-.3 2-.4 3.9-.4 7.6-.8 11.4-.8 2 0 3.8.1 5.5.3 1.6.2 3.1.5 4.5.9l13.3 2.9h15.3c.7-.6 1.7-1.3 3.2-1.7 1.5-.4 3.3-.6 5.1-.6a26.99 26.99 0 0111.2 2.4h17.7c.8-.9 2-1.7 3.6-2.4.6-.3 1.4-.6 2.5-.7h.9c.7 0 1.4.1 2.1.1 1.3.2 2.7.3 3.9.6 1.4.3 2.4.8 3.4 1.3.8.4 1.5.7 2.2 1.1h16v-3.3c-5-.2-10.3-.3-15-1.2z" fill="#DB9648"/><path d="M1075.8 729.7c-1.1-.3-2.3-.4-3.6-.6-.8-.1-1.6-.2-2.2-.1-.7.1-1.3.3-1.8.5-1.4.6-2.5 1.4-3.2 2.1h15.5c-.5-.3-1.1-.5-1.6-.8-1-.3-1.9-.8-3.1-1.1zM960.5 729.8c-1-.2-2.5-.3-3.9-.1-.7.1-1.3.2-1.9.3v1.8h10.1c-.8-.4-1.5-.8-2.3-1.2-.6-.3-1.2-.6-2-.8zM992.8 728.4c-1.5-.2-3.2-.3-5.1-.3-3.6 0-7.2.4-11 .8-.5.1-1.1.1-1.4.2-.6.2-.3.7.4 1 .6.2 1.5.4 2.5.6.3 0 .6.1.8.1 1.3.2 2.6.6 3.8.9h25.6l-11.3-2.5c-1.4-.3-2.8-.6-4.3-.8zM958.5 725.1c1.4-.2 2.6-.5 3.8-.8.5-.1 1-.3 1.5-.5h-9.1v1.4c1.3.1 2.6.1 3.8-.1zM1010.6 725c2.6.2 5.3.1 8 .1 1.1 0 2.4 0 3.4-.2.9-.2 1.6-.5 2.3-.8l.5-.2h-20.6c1.9.7 4.5 1 6.4 1.1zM1096.3 724.7c.6.1 1.2.2 1.9.3v-1.2h-6.2c.2.1.5.1.7.2l3.6.7zM1054.5 724.6c2.2.5 4.8.6 7.3.4.5 0 .9-.1 1.2-.2.4-.1.8-.2 1.2-.4.5-.2.9-.4 1.3-.6h-13.3c.6.3 1.4.6 2.3.8z" fill="#DB9648"/><path d="M1083.9 727c-.6-.1-1.2-.3-1.9-.4-1.7-.4-3.4-.8-5.5-.9-3.6-.2-6.8.6-9.8 1.3-1 .3-2.1.5-3.1.7-3.3.7-7.2 1-10.9.8-.8 0-1.8-.1-2.4-.3-.5-.2-.8-.4-1.2-.7-.2-.2-.4-.4-.7-.5-2.2-1.4-7.6-1.3-9.8-1.2-3.3.2-6.5.5-9.7.8-6.1.6-11.9 1.2-17.7.7-2.3-.2-4.6-.6-6.8-1s-4.4-.8-6.8-1.1c-1.9-.2-3.7-.3-5.6-.3-5.3 0-10.5.6-15.7 1.3-2.2.3-4.4.5-6.6.7-5 .5-10 .7-15.2.8v.5c5.2-.1 10.4-.3 15.5-.8 2.2-.2 4.5-.5 6.6-.8 6.8-.8 13.8-1.7 20.5-1 2.3.2 4.4.6 6.5 1 2.2.4 4.5.8 7 1.1 6.1.6 12.3 0 18.4-.7 3.1-.3 6.3-.6 9.5-.8 1.9-.1 6.7-.2 8.5 1 .2.1.4.3.6.5.4.3.7.7 1.5.9.9.3 2.1.4 3.1.4 4 .2 8.2-.2 11.7-.9 1.1-.2 2.2-.5 3.2-.7 2.9-.7 5.7-1.4 8.8-1.2 1.8.1 3.3.4 5 .8.6.1 1.3.3 1.9.4 4.6.9 9.9 1.1 14.9 1v-.4c-4.3 0-9.5-.1-13.8-1z" fill="#C0753B"/><path d="M993.3 728c-1.7-.2-3.5-.3-5.5-.3-3.7 0-7.5.4-11.4.8-.6.1-1.4.2-2 .4-1.2.5-.8 1.3.4 1.7.8.3 1.9.5 2.9.7.3 0 .5.1.8.1.7.1 1.3.3 2 .4h2.4c-1.2-.3-2.4-.6-3.8-.9-.3 0-.6-.1-.8-.1-.9-.2-1.8-.3-2.5-.6s-1-.8-.4-1c.3-.1.9-.2 1.4-.2 3.8-.4 7.4-.8 11-.8 1.9 0 3.5.1 5.1.3 1.5.2 2.9.5 4.3.8l11.3 2.5h2.7l-13.3-2.9c-1.5-.4-3-.7-4.6-.9zM1039.9 729.9c-1.5-.3-3.4-.5-5.2-.5-1.8 0-3.6.2-5.1.6-1.5.5-2.5 1.1-3.2 1.7h1.5c.6-.5 1.4-1 2.6-1.3 2.5-.7 6.3-.6 8.8-.1 1.8.3 3.4.9 4.8 1.4h1.9c-1.8-.7-3.8-1.4-6.1-1.8zM1076.5 729.3c-1.2-.3-2.6-.5-3.9-.6-.7-.1-1.4-.1-2.1-.1h-.9c-1.1.1-1.9.4-2.5.7-1.6.7-2.8 1.6-3.6 2.4h1.4c.8-.8 1.9-1.5 3.2-2.1.5-.2 1.1-.5 1.8-.5.7-.1 1.4 0 2.2.1 1.3.1 2.5.3 3.6.6 1.2.3 2.1.7 3.1 1.2.5.3 1.1.5 1.6.8h1.7c-.7-.4-1.5-.7-2.2-1.1-1-.6-2-1-3.4-1.4zM1095.6 725.1c.8.2 1.6.3 2.6.4v-.5c-.7-.1-1.3-.2-1.9-.3l-3.5-.7c-.2 0-.5-.1-.7-.2h-2.5c.8.2 1.7.4 2.6.6l3.4.7zM1053.8 725c2.5.5 5.5.7 8.2.5a8.75 8.75 0 003.1-.7c.7-.3 1.3-.6 1.9-.9h-1.6c-.4.2-.8.4-1.3.6-.3.1-.7.3-1.2.4-.3.1-.7.1-1.2.2-2.5.2-5.1 0-7.3-.4-.9-.2-1.7-.4-2.4-.7h-1.8c1.1.3 2.2.7 3.6 1zM1010.4 725.5c2.8.2 5.6.1 8.3.1 1.3 0 2.7 0 3.9-.3 1.2-.2 2-.6 2.7-.9l1.2-.5h-1.8l-.5.2c-.7.3-1.4.6-2.3.8-1 .2-2.2.2-3.4.2-2.6 0-5.4.1-8-.1-1.9-.1-4.5-.4-6.4-1.2h-1.8c.2.1.3.2.5.2 2.3 1 5.4 1.4 7.6 1.5zM958.5 725.1c-1.2.1-2.5.2-3.8.2v.5c1.4 0 2.8 0 4.2-.2 1.6-.2 2.9-.5 4.2-.9.9-.3 1.8-.5 2.6-.9h-1.9c-.5.2-1 .3-1.5.5-1.1.3-2.4.6-3.8.8zM961.2 729.4c-.8-.2-1.9-.3-2.9-.3-.7 0-1.4 0-2 .1-.5.1-1 .1-1.5.2v.6c.6-.1 1.2-.2 1.9-.3 1.4-.2 2.8-.1 3.9.1.8.2 1.5.5 2 .8.8.4 1.5.8 2.3 1.2h1.7c-1-.5-1.9-1-2.9-1.5-.7-.3-1.5-.7-2.5-.9z" fill="#C0753B"/><path opacity=".35" d="M1089.6 723.8H954.7v7.9h143.5V723.8h-8.6z" fill="#9D753B"/><path d="M963.1 708.9c-1.2.3-2.6.7-4.2.9-1.4.2-2.8.2-4.2.2v1.9c5.1-.1 10.2-.3 15.2-.8 2.2-.2 4.4-.5 6.6-.7 5.1-.6 10.4-1.3 15.7-1.3 1.9 0 3.7.1 5.6.3 2.4.2 4.6.7 6.8 1.1 2.2.4 4.4.8 6.8 1 5.8.6 11.5 0 17.7-.7 3.2-.3 6.4-.7 9.7-.8 2.2-.1 7.6-.2 9.8 1.2.3.2.5.4.7.5.3.3.6.5 1.2.7.6.2 1.6.3 2.4.3 3.7.1 7.6-.1 10.9-.8 1-.2 2.1-.5 3.1-.7 3-.7 6.1-1.5 9.8-1.3 2 .1 3.8.5 5.5.9.6.1 1.2.3 1.9.4 4.4.9 9.5 1 14.3.9v-2.4c-.9-.1-1.8-.3-2.6-.4l-3.5-.7c-.9-.2-1.8-.4-2.6-.6h-22.5c-.5.3-1.2.7-1.9 1-.4.2-.9.4-1.5.5-.6.1-1.2.2-1.6.2-2.8.2-5.8 0-8.2-.5-1.4-.3-2.5-.7-3.5-1.2h-23.8l-1.2.5c-.7.3-1.6.7-2.7.9-1.3.2-2.7.3-3.9.3-2.7 0-5.5.1-8.3-.1-2.2-.1-5.3-.5-7.5-1.5-.2-.1-.3-.2-.5-.2H966c-1 .5-2 .8-2.9 1zM1039.2 714.5c-2.6-.5-6.3-.7-8.8.1-1.1.3-1.9.8-2.6 1.3h16.2c-1.4-.5-3-1-4.8-1.4z" fill="#DB9648"/><path d="M1083.2 711.7c-.6-.1-1.3-.3-1.9-.4-1.6-.4-3.2-.7-5-.8-3.1-.2-5.9.5-8.8 1.2a55.02 55.02 0 01-14.9 1.6c-1 0-2.2-.1-3.1-.4-.8-.2-1.2-.6-1.5-.9-.2-.2-.4-.3-.6-.5-1.8-1.1-6.5-1-8.5-1-3.2.2-6.4.5-9.5.8-6 .6-12.2 1.2-18.4.7-2.5-.2-4.8-.7-7-1.1-2.1-.4-4.3-.8-6.5-1-6.7-.7-13.7.2-20.5 1-2.2.3-4.4.5-6.6.8-5.1.5-10.3.7-15.5.8v1.2c.5-.1 1-.2 1.5-.2.7-.1 1.4-.1 2-.1 1.1 0 2.1.1 2.9.3 1 .2 1.8.6 2.4.9 1 .5 1.9 1 2.9 1.5h13.9c-.6-.2-1.3-.3-2-.4-.3 0-.5-.1-.8-.1-1-.2-2-.3-2.9-.7-1.2-.4-1.6-1.2-.4-1.7.6-.2 1.3-.3 2-.4 3.9-.4 7.6-.8 11.4-.8 2 0 3.8.1 5.5.3 1.6.2 3.1.5 4.5.9l13.3 2.9h15.3c.7-.6 1.7-1.3 3.2-1.7 1.5-.4 3.3-.6 5.1-.6a26.99 26.99 0 0111.2 2.4h17.7c.8-.9 2-1.7 3.6-2.4.6-.3 1.4-.6 2.5-.7h.9c.7 0 1.4.1 2.1.1 1.3.2 2.7.3 3.9.6 1.4.3 2.4.8 3.4 1.3.8.4 1.5.7 2.2 1.1h16v-3.3c-5-.1-10.3-.3-15-1.2z" fill="#DB9648"/><path d="M1075.8 714c-1.1-.3-2.3-.4-3.6-.6-.8-.1-1.6-.2-2.2-.1-.7.1-1.3.3-1.8.5-1.4.6-2.5 1.4-3.2 2.1h15.5c-.5-.3-1.1-.5-1.6-.8-1-.4-1.9-.9-3.1-1.1zM960.5 714c-1-.2-2.5-.3-3.9-.1-.7.1-1.3.2-1.9.3v1.8h10.1c-.8-.4-1.5-.8-2.3-1.2-.6-.3-1.2-.6-2-.8zM992.8 712.6c-1.5-.2-3.2-.3-5.1-.3-3.6 0-7.2.4-11 .8-.5.1-1.1.1-1.4.2-.6.2-.3.7.4 1 .6.2 1.5.4 2.5.6.3 0 .6.1.8.1 1.3.2 2.6.6 3.8.9h25.6l-11.3-2.5c-1.4-.2-2.8-.6-4.3-.8zM958.5 709.3c1.4-.2 2.6-.5 3.8-.8.5-.1 1-.3 1.5-.5h-9.1v1.4c1.3.1 2.6.1 3.8-.1zM1010.6 709.3c2.6.2 5.3.1 8 .1 1.1 0 2.4 0 3.4-.2.9-.2 1.6-.5 2.3-.8l.5-.2h-20.6c1.9.6 4.5.9 6.4 1.1zM1096.3 708.9c.6.1 1.2.2 1.9.3V708h-6.2c.2.1.5.1.7.2l3.6.7zM1054.5 708.8c2.2.5 4.8.6 7.3.4.5 0 .9-.1 1.2-.2.4-.1.8-.2 1.2-.4.5-.2.9-.4 1.3-.6h-13.3c.6.3 1.4.6 2.3.8z" fill="#DB9648"/><path d="M1083.9 711.3c-.6-.1-1.2-.3-1.9-.4-1.7-.4-3.4-.8-5.5-.9-3.6-.2-6.8.6-9.8 1.3-1 .3-2.1.5-3.1.7-3.3.7-7.2 1-10.9.8-.8 0-1.8-.1-2.4-.3-.5-.2-.8-.4-1.2-.7-.2-.2-.4-.4-.7-.5-2.2-1.4-7.6-1.3-9.8-1.2-3.3.2-6.5.5-9.7.8-6.1.6-11.9 1.2-17.7.7-2.3-.2-4.6-.6-6.8-1s-4.4-.8-6.8-1.1c-1.9-.2-3.7-.3-5.6-.3-5.3 0-10.5.6-15.7 1.3-2.2.3-4.4.5-6.6.7-5 .5-10 .7-15.2.8v.5c5.2-.1 10.4-.3 15.5-.8 2.2-.2 4.5-.5 6.6-.8 6.8-.8 13.8-1.7 20.5-1 2.3.2 4.4.6 6.5 1 2.2.4 4.5.8 7 1.1 6.1.6 12.3 0 18.4-.7 3.1-.3 6.3-.6 9.5-.8 1.9-.1 6.7-.2 8.5 1 .2.1.4.3.6.5.4.3.7.7 1.5.9.9.3 2.1.4 3.1.4 4 .2 8.2-.2 11.7-.9 1.1-.2 2.2-.5 3.2-.7 2.9-.7 5.7-1.4 8.8-1.2 1.8.1 3.3.4 5 .8.6.1 1.3.3 1.9.4 4.6.9 9.9 1.1 14.9 1v-.5c-4.3 0-9.5-.1-13.8-.9z" fill="#C0753B"/><path d="M993.3 712.2c-1.7-.2-3.5-.3-5.5-.3-3.7 0-7.5.4-11.4.8-.6.1-1.4.2-2 .4-1.2.5-.8 1.3.4 1.7.8.3 1.9.5 2.9.7.3 0 .5.1.8.1.7.1 1.3.3 2 .4h2.4c-1.2-.3-2.4-.6-3.8-.9-.3 0-.6-.1-.8-.1-.9-.2-1.8-.3-2.5-.6s-1-.8-.4-1c.3-.1.9-.2 1.4-.2 3.8-.4 7.4-.8 11-.8 1.9 0 3.5.1 5.1.3 1.5.2 2.9.5 4.3.8l11.3 2.5h2.7l-13.3-2.9c-1.5-.4-3-.7-4.6-.9zM1039.9 714.1c-1.5-.3-3.4-.5-5.2-.5-1.8 0-3.6.2-5.1.6-1.5.5-2.5 1.1-3.2 1.7h1.5c.6-.5 1.4-1 2.6-1.3 2.5-.8 6.3-.6 8.8-.1 1.8.3 3.4.9 4.8 1.4h1.9c-1.8-.7-3.8-1.3-6.1-1.8zM1076.5 713.5c-1.2-.3-2.6-.5-3.9-.6-.7-.1-1.4-.1-2.1-.1h-.9c-1.1.1-1.9.4-2.5.7-1.6.7-2.8 1.6-3.6 2.4h1.4c.8-.8 1.9-1.5 3.2-2.1.5-.2 1.1-.5 1.8-.5.7-.1 1.4 0 2.2.1 1.3.1 2.5.3 3.6.6 1.2.3 2.1.7 3.1 1.2.5.3 1.1.5 1.6.8h1.7c-.7-.4-1.5-.7-2.2-1.1-1-.6-2-1-3.4-1.4zM1095.6 709.4c.8.2 1.6.3 2.6.4v-.5c-.7-.1-1.3-.2-1.9-.3l-3.5-.7c-.2 0-.5-.1-.7-.2h-2.5c.8.2 1.7.4 2.6.6l3.4.7zM1053.8 709.2c2.5.5 5.5.7 8.2.5a8.75 8.75 0 003.1-.7c.7-.3 1.3-.6 1.9-1h-1.6c-.4.2-.8.4-1.3.6-.3.1-.7.3-1.2.4-.3.1-.7.1-1.2.2-2.5.2-5.1 0-7.3-.4-.9-.2-1.7-.4-2.4-.7h-1.8c1.1.4 2.2.8 3.6 1.1zM1010.4 709.7c2.8.2 5.6.1 8.3.1 1.3 0 2.7 0 3.9-.3 1.2-.2 2-.6 2.7-.9l1.2-.5h-1.8l-.5.2c-.7.3-1.4.6-2.3.8-1 .2-2.2.2-3.4.2-2.6 0-5.4.1-8-.1-1.9-.1-4.5-.4-6.4-1.2h-1.8c.2.1.3.2.5.2 2.3 1 5.4 1.4 7.6 1.5zM958.5 709.3c-1.2.1-2.5.2-3.8.2v.5c1.4 0 2.8 0 4.2-.2 1.6-.2 2.9-.5 4.2-.9.9-.3 1.8-.5 2.6-.9h-1.9c-.5.2-1 .3-1.5.5-1.1.3-2.4.7-3.8.8zM961.2 713.6c-.8-.2-1.9-.3-2.9-.3-.7 0-1.4 0-2 .1-.5.1-1 .1-1.5.2v.6c.6-.1 1.2-.2 1.9-.3 1.4-.2 2.8-.1 3.9.1.8.2 1.5.5 2 .8.8.4 1.5.8 2.3 1.2h1.7c-1-.5-1.9-1-2.9-1.5-.7-.3-1.5-.7-2.5-.9z" fill="#C0753B"/><path opacity=".35" d="M1092 708.1H954.7V716h143.5V708.1h-6.2z" fill="#9D753B"/><path d="M1083.9 738.8c1.2-.3 2.6-.7 4.2-.9 1.4-.2 2.8-.2 4.2-.2v-1.9c-5.1.1-10.2.3-15.2.8-2.2.2-4.4.5-6.6.7-5.1.6-10.4 1.3-15.7 1.3-1.9 0-3.7-.1-5.6-.3-2.4-.2-4.6-.7-6.8-1.1-2.2-.4-4.4-.8-6.8-1-5.8-.6-11.5 0-17.7.6-3.2.3-6.4.7-9.7.8-2.2.1-7.6.2-9.8-1.2-.3-.2-.5-.4-.7-.5-.3-.3-.6-.5-1.2-.7-.6-.2-1.6-.3-2.4-.3-3.7-.1-7.6.1-10.9.8-1 .2-2.1.5-3.1.7-3 .7-6.1 1.5-9.8 1.3-2-.1-3.8-.5-5.5-.9-.6-.1-1.2-.3-1.9-.4-4.4-.9-9.5-1-14.3-.9v2.4c.9.1 1.8.3 2.6.4l3.5.7c.9.2 1.8.4 2.6.6H980c.5-.3 1.2-.7 1.9-1 .4-.2.9-.4 1.5-.5.6-.1 1.2-.2 1.6-.2 2.8-.2 5.8 0 8.2.5 1.4.3 2.5.7 3.5 1.2h23.8l1.2-.5c.7-.3 1.6-.7 2.7-.9 1.3-.2 2.7-.3 3.9-.3 2.7 0 5.5-.1 8.3.1 2.2.1 5.3.5 7.5 1.4.2.1.3.2.5.2h36.6c.9-.3 1.8-.6 2.7-.8zM1007.8 733.1c2.6.5 6.3.7 8.8-.1 1.1-.3 1.9-.8 2.5-1.3H1003c1.4.6 3 1.1 4.8 1.4z" fill="#DB9648"/><path d="M963.8 736c.6.1 1.3.3 1.9.4 1.6.4 3.2.7 5 .8 3.1.2 5.9-.5 8.8-1.2a55.02 55.02 0 0114.9-1.6c1 0 2.2.1 3.1.4.8.2 1.2.6 1.5.9.2.2.4.3.6.5 1.8 1.1 6.5 1 8.5 1 3.2-.2 6.4-.5 9.5-.8 6-.6 12.2-1.2 18.4-.7 2.5.2 4.8.7 7 1.1 2.1.4 4.3.8 6.5 1 6.7.7 13.7-.2 20.5-1 2.2-.3 4.4-.5 6.6-.8 5.1-.5 10.3-.7 15.5-.8V734c-.5.1-1 .2-1.5.2-.7.1-1.4.1-2 .1-1.1 0-2.1-.1-2.9-.3-1-.2-1.8-.6-2.4-.9-1-.5-1.9-1-2.9-1.5h-13.9c.7.2 1.3.3 2 .4.3 0 .5.1.8.1 1 .2 2 .3 2.9.7 1.2.4 1.6 1.2.4 1.7-.6.2-1.3.3-2 .4-3.9.4-7.7.8-11.4.8-2 0-3.8-.1-5.5-.3-1.6-.2-3.1-.5-4.5-.9l-13.3-2.9h-15.3c-.7.6-1.7 1.3-3.2 1.7-1.5.4-3.3.6-5.1.6a26.99 26.99 0 01-11.2-2.4h-17.7c-.8.9-2 1.7-3.6 2.4-.6.3-1.4.6-2.5.7h-.9c-.7 0-1.4-.1-2.1-.1-1.3-.2-2.7-.3-3.9-.6-1.4-.3-2.4-.8-3.4-1.3-.8-.4-1.5-.7-2.2-1.1h-16v3.3c5 .1 10.4.3 15 1.2z" fill="#DB9648"/><path d="M971.2 733.7c1.1.3 2.3.4 3.6.6.8.1 1.6.2 2.2.1.7-.1 1.3-.3 1.8-.5 1.4-.6 2.5-1.4 3.2-2.1h-15.5c.5.3 1.1.5 1.6.8 1 .4 1.9.8 3.1 1.1zM1086.5 733.7c1 .2 2.5.3 3.9.1.7-.1 1.3-.2 1.9-.3v-1.8h-10.1c.8.4 1.5.8 2.3 1.2.6.3 1.2.6 2 .8zM1054.2 735c1.5.2 3.2.3 5.1.3 3.6 0 7.2-.4 11-.8.5-.1 1.1-.1 1.4-.2.6-.2.3-.7-.4-1-.6-.2-1.5-.4-2.5-.6-.3 0-.6-.1-.8-.1-1.3-.2-2.6-.6-3.8-.9h-25.6l11.3 2.5c1.4.3 2.8.6 4.3.8zM1088.5 738.4c-1.4.2-2.6.5-3.8.8-.5.1-1 .3-1.5.5h9.1v-1.4c-1.3-.1-2.6-.1-3.8.1zM1036.4 738.4c-2.6-.2-5.3-.1-8-.1-1.1 0-2.4 0-3.4.2-.9.2-1.6.5-2.3.8l-.5.2h20.6c-1.9-.6-4.5-.9-6.4-1.1zM950.8 738.8c-.6-.1-1.2-.2-1.9-.3v1.2h6.2c-.2-.1-.5-.1-.7-.2l-3.6-.7zM992.5 738.9c-2.2-.5-4.8-.6-7.3-.4-.5 0-.9.1-1.2.2-.4.1-.8.2-1.2.4-.5.2-.9.4-1.3.6H995c-.8-.4-1.6-.6-2.5-.8z" fill="#DB9648"/><path d="M963.1 736.4c.6.1 1.2.3 1.9.4 1.7.4 3.4.8 5.5.9 3.6.2 6.8-.6 9.8-1.3 1-.3 2.1-.5 3.1-.7 3.3-.7 7.2-1 10.9-.8.8 0 1.8.1 2.4.3.5.2.8.4 1.2.7.2.2.4.4.7.5 2.2 1.4 7.6 1.3 9.8 1.2 3.3-.2 6.5-.5 9.7-.8 6.1-.6 11.9-1.2 17.7-.6 2.3.2 4.6.6 6.8 1s4.4.8 6.8 1.1c1.9.2 3.7.3 5.6.3 5.3 0 10.5-.6 15.7-1.3 2.2-.3 4.4-.5 6.6-.7 5-.5 10-.7 15.2-.8v-.5c-5.2.1-10.4.3-15.5.8-2.2.2-4.5.5-6.6.8-6.8.8-13.8 1.7-20.5 1-2.3-.2-4.4-.6-6.5-1-2.2-.4-4.5-.8-7-1.1-6.1-.6-12.3 0-18.4.7-3.1.3-6.3.6-9.5.8-1.9.1-6.7.2-8.5-1-.2-.1-.4-.3-.6-.5-.4-.3-.7-.7-1.5-.9-.9-.3-2.1-.4-3.1-.4-4-.2-8.2.2-11.7.9-1.1.2-2.2.5-3.2.7-2.9.7-5.7 1.4-8.8 1.2-1.8-.1-3.3-.4-5-.8-.6-.1-1.3-.3-1.9-.4-4.6-.9-9.9-1.1-14.9-1v.5c4.4-.2 9.5 0 13.8.8z" fill="#C0753B"/><path d="M1053.8 735.5c1.7.2 3.5.3 5.5.3 3.7 0 7.5-.4 11.4-.8.6-.1 1.4-.2 2-.4 1.2-.5.8-1.3-.4-1.7-.8-.3-1.9-.5-2.9-.7-.3 0-.5-.1-.8-.1-.7-.1-1.3-.3-2-.4h-2.4c1.2.3 2.4.6 3.8.9.3 0 .6.1.8.1.9.2 1.8.3 2.5.6s1 .8.4 1c-.3.1-.9.2-1.4.2-3.8.4-7.4.8-11 .8-1.9 0-3.5-.1-5.1-.3-1.5-.2-2.9-.5-4.3-.8l-11.3-2.5h-2.7l13.3 2.9c1.5.4 2.9.7 4.6.9zM1007.2 733.6c1.5.3 3.4.5 5.2.5 1.8 0 3.6-.2 5.1-.6 1.5-.5 2.5-1.1 3.2-1.7h-1.5c-.6.5-1.4 1-2.5 1.3-2.5.8-6.3.6-8.8.1-1.8-.3-3.4-.9-4.8-1.4h-1.9c1.7.6 3.6 1.3 6 1.8zM970.5 734.2c1.2.3 2.6.5 3.9.6.7.1 1.4.1 2.1.1h.9c1.1-.1 1.9-.4 2.5-.7 1.6-.7 2.8-1.6 3.6-2.4H982c-.8.8-1.9 1.5-3.2 2.1-.5.2-1.1.5-1.8.5-.7.1-1.4 0-2.2-.1-1.3-.1-2.5-.3-3.6-.6-1.2-.3-2.1-.7-3.1-1.2-.5-.3-1.1-.5-1.6-.8h-1.7c.7.4 1.5.7 2.2 1.1 1.1.5 2.1 1 3.5 1.4zM951.4 738.3c-.8-.2-1.6-.3-2.6-.4v.5c.7.1 1.3.2 1.9.3l3.5.7c.2 0 .5.1.7.2h2.5c-.8-.2-1.7-.4-2.6-.6l-3.4-.7zM993.2 738.5c-2.5-.5-5.5-.7-8.2-.5a8.75 8.75 0 00-3.1.7c-.7.3-1.3.6-1.9 1h1.6c.4-.2.8-.4 1.3-.6.3-.1.7-.3 1.2-.4.3-.1.7-.1 1.2-.2 2.5-.2 5.1 0 7.3.4.9.2 1.7.4 2.4.7h1.8c-1-.4-2.2-.8-3.6-1.1zM1036.6 737.9c-2.8-.2-5.6-.1-8.3-.1-1.3 0-2.7 0-3.9.3-1.2.2-2 .6-2.7.9l-1.2.5h1.8l.5-.2c.7-.3 1.4-.6 2.3-.8 1-.2 2.2-.2 3.4-.2 2.6 0 5.4-.1 8 .1 1.9.1 4.5.4 6.4 1.2h1.8c-.2-.1-.3-.2-.5-.2-2.3-.9-5.4-1.3-7.6-1.5zM1088.5 738.4c1.2-.1 2.5-.2 3.8-.2v-.5c-1.4 0-2.8 0-4.2.2-1.6.2-2.9.5-4.2.9-.9.3-1.8.5-2.6.9h1.9c.5-.2 1-.3 1.5-.5 1.2-.3 2.4-.7 3.8-.8zM1085.8 734.1c.8.2 1.9.3 2.9.3.7 0 1.3 0 2-.1.5-.1 1-.1 1.5-.2v-.6c-.6.1-1.2.2-1.9.3-1.4.2-2.8.1-3.9-.1-.8-.2-1.5-.5-2-.8-.8-.4-1.5-.8-2.3-1.2h-1.7c1 .5 1.9 1 2.9 1.5.7.3 1.5.7 2.5.9z" fill="#C0753B"/><path d="M1105.5 757.8H1059v1.9h46.5v-1.9zM1105.5 765.5H1059v1.9h46.5v-1.9z" fill="#C1C3C4"/><path d="M1125.7 716.8h17.2l7.4 11c1.5 2.2-.1 5.1-2.7 5.1h-21.9v-16.1z" fill="#F4EBDE"/><path d="M1133.6 739.5h-7.9v3.3h7.9v-3.3z" fill="#241511"/><path d="M1075.1 706.4v40H1047v-40h-6.2v40h-28.1v-40h-6.2v40h-28.1v-40h-6.1v43.8h108.9v-43.8h-6.1z" fill="#3F312C"/><path d="M566.9 755.8h-6.2v28h6.2v-28z" fill="#C1C3C4"/><path d="M563.8 755.8h-3.1v28h3.1v-28z" fill="#DBDDDE"/><path d="M569.9 783.2h-12.3v1.7h12.3v-1.7z" fill="#241511"/><path d="M587.7 767.7h-48.4c-2 0-3.6-1.6-3.6-3.6v-43.5c0-2 1.6-3.6 3.6-3.6h48.4c2 0 3.6 1.6 3.6 3.6v43.5c0 2-1.6 3.6-3.6 3.6z" fill="#C1C3C4"/><path d="M581.9 762.4h-36.8c-2 0-3.6-1.6-3.6-3.6v-32.9c0-2 1.6-3.6 3.6-3.6h36.8c2 0 3.6 1.6 3.6 3.6v32.9c0 2-1.6 3.6-3.6 3.6z" fill="#A1A4A6"/><path d="M572.9 754h-17.7v-15.2h17.7V754zm-16.8-1h15.7v-13.2h-15.7V753z" fill="#E9EAEB"/><path d="M576.3 739.7h-25.2l12.6-9.2 12.6 9.2zm-22.1-1h19.1l-9.5-7-9.6 7z" fill="#E9EAEB"/><path d="M571.3 737.3l-3.4-2.5v-4.4h3.4v6.9zm-2.4-3.1l1.4 1v-4h-1.4v3zM568.1 750.5h-8.2v-8.2h8.2v8.2zm-7.2-1h6.2v-6.2h-6.2v6.2z" fill="#E9EAEB"/><path d="M564.5 742.6h-1v7.3h1v-7.3z" fill="#E9EAEB"/><path d="M567.5 746h-7.3v1h7.3v-1zM581.1 739.4h-.5v.3h.5v-.3zM579.9 739.7h-.8v-.3h.8v.3zm-1.6 0h-.8v-.3h.8v.3zM576.7 739.4h-.5v.3h.5v-.3zM579.6 740.5h-.5v12h.5v-12z" fill="#E9EAEB"/><path d="M579.3 753.4c.2-.4.4-1 .7-1.3l-.7.3-.7-.3c.3.4.5.9.7 1.3zM579.3 739.6c.2.4.4 1 .7 1.3l-.7-.3-.7.3c.3-.4.5-.9.7-1.3zM581.1 753.3h-.5v.3h.5v-.3z" fill="#E9EAEB"/><path d="M579.9 753.6h-.7v-.3h.7v.3zm-1.4 0h-.7v-.3h.7v.3zM577.1 753.6h-.7v-.3h.7v.3zm-1.4 0h-.7v-.3h.7v.3zm-1.4 0h-.7v-.3h.7v.3zM572.9 753.3h-.5v.3h.5v-.3zM551.8 724.4h-.3v.5h.3v-.5zM551.8 728.1h-.3v-.8h.3v.8zm0-1.6h-.3v-.8h.3v.8zM551.8 737.9h-.3v-.8h.3v.8zm0-1.6h-.3v-.8h.3v.8zm0-1.6h-.3v-.8h.3v.8zm0-1.7h-.3v-.8h.3v.8zm0-1.6h-.3v-.8h.3v.8zm0-1.6h-.3v-.8h.3v.8zM551.8 738.7h-.3v.5h.3v-.5zM574.9 726.9h-22.3v.5h22.3v-.5z" fill="#E9EAEB"/><path d="M575.8 727.1c-.4-.2-1-.4-1.3-.7l.3.7-.3.7c.4-.2.9-.5 1.3-.7zM551.7 727.1c.4-.2 1-.4 1.3-.7l-.3.7.3.7c-.4-.2-.9-.5-1.3-.7zM576.1 724.4h-.3v.5h.3v-.5zM576.1 728.1h-.3v-.8h.3v.8zm0-1.6h-.3v-.8h.3v.8zM576.1 737.9h-.3v-.8h.3v.8zm0-1.6h-.3v-.8h.3v.8zm0-1.6h-.3v-.8h.3v.8zm0-1.7h-.3v-.8h.3v.8zm0-1.6h-.3v-.8h.3v.8zm0-1.6h-.3v-.8h.3v.8zM576.1 738.7h-.3v.5h.3v-.5zM572.5 758.8h-.3v.5h.3v-.5zM572.5 757.8h-.3v-1h.3v1zm0-1.9h-.3v-1h.3v1zM572.5 753.5h-.3v.5h.3v-.5zM571.4 757.1h-14.8v.5h14.8v-.5z" fill="#E9EAEB"/><path d="M555.7 757.3c.4.2 1 .4 1.3.7l-.3-.7.3-.7c-.3.3-.8.6-1.3.7zM572.4 757.3c-.4.2-1 .4-1.3.7l.3-.7-.3-.7c.3.3.8.6 1.3.7zM555.8 758.8h-.3v.5h.3v-.5z" fill="#E9EAEB"/><path d="M555.8 757.8h-.3v-1h.3v1zm0-1.9h-.3v-1h.3v1zM555.8 753.5h-.3v.5h.3v-.5zM549.3 750.1h-.5v.3h.5v-.3zM553.1 750.4h-1v-.3h1v.3zm-1.9 0h-1v-.3h1v.3zM558.9 750.4h-1v-.3h1v.3zm-1.9 0h-1v-.3h1v.3zm-1.9 0h-1v-.3h1v.3zM560.4 750.1h-.5v.3h.5v-.3zM551.2 743.4h-.5v6h.5v-6z" fill="#E9EAEB"/><path d="M550.9 742.5c-.2.4-.4 1-.7 1.3l.7-.3.7.3c-.3-.3-.5-.9-.7-1.3zM550.9 750.3c-.2-.4-.4-1-.7-1.3l.7.3.7-.3c-.3.4-.5.9-.7 1.3zM549.3 742.4h-.5v.3h.5v-.3z" fill="#E9EAEB"/><path d="M553.1 742.7h-1v-.3h1v.3zm-1.9 0h-1v-.3h1v.3zM558.9 742.7h-1v-.3h1v.3zm-1.9 0h-1v-.3h1v.3zm-1.9 0h-1v-.3h1v.3zM560.4 742.4h-.5v.3h.5v-.3z" fill="#E9EAEB"/><path d="M502.6 760.9l-1.8-7.3c0-.9-.8-1.5-1.7-1.3-.2 0-.3.1-.4.3-.4.9-.9 1.8-1.3 2.7.1 1.7 1.8 6.5 2.3 7.5l3.5 6.2 3.5-1.8-4.1-6.3z" fill="#F4B423"/><path d="M506.6 766.9a2 2 0 01-.9 2.7c-1 .5-2.2.1-2.7-.8l3.6-1.9z" fill="#E4AF75"/><path d="M503.3 769c-.1-.1-.2-.2-.2-.3l3.5-1.8c.1.1.1.2.1.4l-3.4 1.7z" fill="#C99242"/><path d="M493.88 746.49l-1.11 6.2 3.64.66 1.11-6.2-3.64-.66z" fill="#E4AF75"/><path d="M493.8 746.5l-.7 4a6.05 6.05 0 003.7.6l.7-4-3.7-.6z" fill="#C99242"/><path d="M496.9 739.4c-2.7-.5-5.3 1.1-6.1 3.6-.4.1-.8.5-.9 1-.1.6.1 1.2.6 1.3.2 2.4 2 4.4 4.5 4.8 3 .5 5.8-1.4 6.4-4.4.5-2.9-1.5-5.7-4.5-6.3z" fill="#E4AF75"/><path d="M497.1 738.3c-3.3-.6-6.1 1.6-6.7 4.9 0 0 .2-.2.6-.1.9.3.3 1.3.3 1.4l.6.3c1-2 2.6-3.5 4.6-3.1.5.1 2.2 1.9 3.2 2.1 1.2.2 2.3-.4 2.4-1.3.5-2.7-3.4-4-5-4.2z" fill="#241511"/><path d="M503.3 742.6c.1-.2-.7-.8-.7-.8.6-3.4-1.4-6.7-4.8-7.3-3.4-.6-6.4 1.7-7 5.2 0 .2-.4.4-.4.7l7.8 3.9 5.1-1.7z" fill="#DF0926"/><path d="M498.9 742.9c-2.8-.3-7.5-1.9-8.1-3.3-.3.3-.4.6-.5.9-.1.7 3.5 2.1 4.3 2.8 0 0-.7 1.1 4 1.9 4.9.9 7-2.1 4-3.5.2.7-.1 1.6-3.7 1.2z" fill="#821721"/><path d="M499.8 752.3l-10.1-1.8c-.6-.1-1.2.3-1.4.9l-2.8 15.7 12.3 2.2 2.8-15.4c0 .1.3-1.4-.8-1.6z" fill="#F4B423"/><path d="M501.9 773.9l-3.7-6.5h-5l3.6 6.5-.6 10.7h5l.7-10.7zM485.3 773.9l-3.8 8.3 4.8 2.4 4.1-10.7.5-6.5-5.4-.2-.2 6.7z" fill="#5067AE"/><path d="M499.8 752.3l-2.3-.4-.5 5.9-4.2-.8-.7-6.1-2.4-.4c-.3.5-2.3 6.8-2.3 6.8l-1.8 9.9 12.3 2.2 1.8-10c0 .1.2-6.5.1-7.1z" fill="#5067AE"/><path d="M486.31 762.72l-.27 1.48 12.3 2.22.27-1.47-12.3-2.23zM501.3 784.6h-5.1l.2-2.3h5c1.3 0 1.6 1 1.6 2.3h-1.7zM486.4 784.6h-5.1l.2-2.3h5c1.3 0 1.6 1 1.6 2.3h-1.7zM515.9 779l-7.9-2.5 3-9.5 7.9 2.5c2.6.8 4 3.6 3.2 6.2v.1c-.8 2.6-3.6 4-6.2 3.2z" fill="#241511"/><path d="M515.1 774.3l-43.7-13.6c-.4-.1-.6-.6-.5-1 .1-.4.6-.6 1-.5l43.7 13.6c.4.1.6.6.5 1-.1.4-.6.7-1 .5z" fill="#A1A4A6"/><path d="M489.6 750.5c-2.9.2-6.7 2.1-7.6 2.8l-5.1 5.6 2.7 2.9 4.1-5.8 4.1-1c2.2-.7 2.2-4.5 1.8-4.5z" fill="#F4B423"/><path d="M479.8 761.6c-.8.7-2.1.7-2.8-.1-.7-.8-.7-2 .1-2.8l2.7 2.9z" fill="#E4AF75"/><path d="M479.5 761.8c.1-.1.2-.1.3-.2l-2.7-2.9-.3.3 2.7 2.8z" fill="#C99242"/></svg>