<svg width="206" height="69" fill="none" xmlns="http://www.w3.org/2000/svg"><path fill-rule="evenodd" clip-rule="evenodd" d="M26.7 42.5V.6h6.2v13.2h6.6V.7L52.7.6V19l-26 23.5zm0 0V.6h-6.2v13.2h-6.6V.7L.7.6v25.2c0 2 2.2 3.5 4.5 5.7.8.8 2.1 1.5 2.1 3v25.6l19.4-17.6z" fill="#E30613"/><path fill-rule="evenodd" clip-rule="evenodd" d="M62.9 58.3c0 2.9-.9 5.3-2.6 7.1a8.32 8.32 0 01-6.3 2.7H41.2v-7.6h11.2c.7 0 1.2-.2 1.5-.6.4-.4.6-.9.6-1.6 0-.6-.2-1.2-.6-1.6-.4-.4-.9-.6-1.5-.6H41.2v-7.6h11.2c.7 0 1.2-.2 1.5-.6.4-.4.6-.9.6-1.6 0-.7-.2-1.2-.6-1.6-.4-.4-.9-.6-1.5-.6H41.2l8.4-7.6H54c2.6 0 4.7.9 6.4 2.7 1.7 1.8 2.5 4.2 2.5 7.1 0 1.4-.3 2.6-1 3.7-.7 1-1.5 1.9-2.6 2.5 1 .3 1.9 1 2.6 2.1.7 1 1 2.3 1 3.7zm34.2 9.8h-8.4v-4.3H73.6l8.4-7.7h6.6v-8.4L65.2 68.8V57.7l23.4-21.2H97v31.6h.1zm41.2 0h-8.8v-12l-14.2 12.7V56.1l-14 12.7V57.6l24.2-22v11.2l12.8-11.2v32.5zm39-31.6l-15.7 15 7 6.4v10.9l-13.1-11.7-3.8 3.5v7.6h-8.4V43.5l8.4-7.6v13.7l14.2-12.9h11.4v-.2zm28.5 31.6V36.5h-7.2l-14.5 13.2V35.8l-8.4 7.6v25.3l21.8-19.6v19h8.3z" fill="#000"/><path fill-rule="evenodd" clip-rule="evenodd" d="M73 8.6L69.3 12h-.8v10.7h-3.7V12h-3.9l3.7-3.4H73zm11.7 9.7c0-.6-.2-1.2-.5-1.7s-.7-.8-1.2-.9a3.18 3.18 0 001.7-2.7c0-1.3-.4-2.3-1.1-3.1-.8-.8-1.7-1.2-2.8-1.2H76l-3.7 3.4v10.7H76V12h4.1c.3 0 .5.1.7.3.2.2.2.4.2.7 0 .3-.1.5-.2.7-.2.2-.4.3-.7.3h-3.3v3.4h3.3c.3 0 .5.1.7.3.2.2.2.4.2.7 0 .3-.1.5-.2.7-.2.2-.4.3-.7.3h-3.3v3.4h4c1.1 0 2.1-.4 2.8-1.2.7-1 1.1-2 1.1-3.3zm15.4-9.7L96.4 12h-5.9v2h5.9v3.4h-5.9v2h5.9v3.4h-9.6V12.1l3.7-3.4h9.6v-.1zm10.3 5.3c0-1.6-.6-3-1.8-4-1-.9-2.2-1.3-3.5-1.3h-1.7L99.7 12v10.7h3.7V12h1.7c.5 0 1 .2 1.4.5.4.4.6.8.6 1.4 0 .6-.2 1-.6 1.4-.4.4-.8.5-1.4.5h-.8v3.4h.8c1.3 0 2.5-.4 3.5-1.3 1.2-1 1.8-2.3 1.8-4zm14.2-5.3l-3.7 3.4h-.8c-1.3 0-2.3.3-3.1 1-.8.7-1.3 1.6-1.3 2.6s.4 1.9 1.3 2.6c.9.7 1.9 1.1 3.1 1.1h.8v3.4h-1c-2.2 0-4.1-.7-5.6-2s-2.3-3-2.3-5 .8-3.6 2.3-5c1.5-1.4 3.4-2 5.6-2h4.7v-.1zm14.8 0h-5.1l-6.3 5.7V8.2l-3.7 3.4v11h3.7v-3.4l1.7-1.5 5.8 5.2V18l-3.1-2.8 7-6.6zm12.6 14h-3.7v-8.5l-9.7 8.7V11.6l3.7-3.4v6.2l6.5-5.9h3.2v14.1zm15.5-14l-3.7 3.4h-5.9v2h5.9v3.4h-5.9v2h5.9v3.4h-9.6V12.1l3.7-3.4h9.6v-.1z" fill="#E30613"/></svg>